SplineFontDB: 3.2
FontName: KamePoster-Regular
FullName: Kame Poster Regular
FamilyName: Kame Poster
Weight: Regular
Copyright: Copyright (c) 2020, Romain Goetz
UComments: "2020-3-18: Created with FontForge (http://fontforge.org)"
Version: 003.002
ItalicAngle: 0
UnderlinePosition: -100
UnderlineWidth: 50
Ascent: 800
Descent: 200
InvalidEm: 0
LayerCount: 2
Layer: 0 0 "Back" 1
Layer: 1 0 "Fore" 0
XUID: [1021 211 -755066739 10458711]
FSType: 0
OS2Version: 0
OS2_WeightWidthSlopeOnly: 0
OS2_UseTypoMetrics: 1
CreationTime: 1584545297
ModificationTime: 1586030827
PfmFamily: 17
TTFWeight: 400
TTFWidth: 3
LineGap: 90
VLineGap: 0
OS2TypoAscent: 800
OS2TypoAOffset: 0
OS2TypoDescent: -100
OS2TypoDOffset: 0
OS2TypoLinegap: 90
OS2WinAscent: 800
OS2WinAOffset: 0
OS2WinDescent: 100
OS2WinDOffset: 0
HheadAscent: 800
HheadAOffset: 0
HheadDescent: 100
HheadDOffset: 0
OS2CapHeight: 720
OS2XHeight: 520
OS2Vendor: 'PfEd'
Lookup: 4 0 0 "'dlig' Discretionary Ligatures in Latin lookup 2" { "'dlig' Discretionary Ligatures in Latin lookup 2-1"  } ['dlig' ('DFLT' <'dflt' > 'latn' <'dflt' > ) ]
Lookup: 4 0 1 "'liga' Standard Ligatures in Latin lookup 0" { "'liga' Standard Ligatures in Latin lookup 0-1"  } ['liga' ('DFLT' <'dflt' > 'latn' <'dflt' > ) ]
Lookup: 1 0 0 "'cv01' Character Variants 01 in Latin lookup 0" { "'cv01' Character Variants 01 in Latin lookup 0-1"  "'cv01' Character Variants 01 in Latin lookup 0-2"  } ['cv01' ('DFLT' <'dflt' > 'latn' <'dflt' > ) ]
Lookup: 258 0 0 "'kern' Horizontal Kerning in Latin lookup 0" { "'kern' Horizontal Kerning in Latin lookup 0-1" [150,0,2] } ['kern' ('DFLT' <'dflt' > 'latn' <'dflt' > ) ]
MarkAttachClasses: 1
DEI: 91125
KernClass2: 26 17 "'kern' Horizontal Kerning in Latin lookup 0-1"
 89 S s Sacute sacute Scircumflex scircumflex Scedilla scedilla Scaron scaron uni0218 uni0219

StartChar: A
Encoding: 33 65 0
Width: 460
VWidth: 0
Flags: W
HStem: 0 21G<30 122.4 337.6 430> 0 21G<30 122.4 337.6 430> 250 50<164 296> 700 20G<185.556 274.444> 700 20G<185.556 274.444>
LayerCount: 2
Fore
SplineSet
430 0 m 1xb0
 340 0 l 1
 310 250 l 1
 150 250 l 1
 120 0 l 1
 30 0 l 1
 190 720 l 1
 270 720 l 1
 430 0 l 1xb0
296 300 m 1
 230 630 l 1
 164 300 l 1
 296 300 l 1
EndSplineSet
Validated: 1
EndChar

StartChar: B
Encoding: 34 66 1
Width: 509
VWidth: 0
Flags: W
HStem: 0 27<120.842 261.655> 382 27<120 250.562> 692 28<120 283.905>
VStem: 40 80<28.0027 381.41 410 690> 356 84<474.678 626.375> 391 78<123.632 278.059>
LayerCount: 2
Fore
SplineSet
317 399 m 1xf8
 404 380 469 293 469 206 c 0xf4
 469 179 464 152 450 127 c 0
 422 76 374 39 318 18 c 0
 292 4 242 0 190 0 c 2
 40 0 l 1
 40 720 l 1
 190 720 l 2
 280 720 345 713 383 675 c 0
 421 642 440 597 440 552 c 0
 440 486 398 422 317 401 c 1
 317 399 l 1xf8
120 410 m 1
 138 410 156 409 175 409 c 0
 246 409 319 417 348 490 c 0
 354 505 356 521 356 538 c 0xf8
 356 577 342 618 324 645 c 0
 297 685 250 692 202 692 c 0
 174 692 145 690 120 690 c 1
 120 410 l 1
120 30 m 1
 138 28 154 27 170 27 c 0
 318 27 391 113 391 200 c 0xf4
 391 290 313 382 162 382 c 0
 148 382 134 381 120 380 c 1
 120 30 l 1
EndSplineSet
Validated: 1
EndChar

StartChar: C
Encoding: 35 67 2
Width: 507
VWidth: 0
Flags: W
HStem: -10 30<231.348 343.123> 700 30<235.724 336.037>
VStem: 30 80<186.517 507.22>
LayerCount: 2
Fore
SplineSet
467 46 m 1
 416 6 352 -10 286 -10 c 0
 79 -10 30 169 30 374 c 0
 30 540 100 730 286 730 c 0
 350 730 406 718 455 680 c 1
 430 616 l 1
 374 653 341 700 286 700 c 0
 167 700 110 482 110 360 c 0
 112 239 139 26 286 20 c 0
 303 20 325 23 340 30 c 0
 378 49 408 89 445 112 c 1
 467 46 l 1
EndSplineSet
Validated: 1
EndChar

StartChar: D
Encoding: 36 68 3
Width: 513
VWidth: 0
Flags: W
HStem: 0 28<120 254.515> 694 26<120 247.458>
VStem: 40 80<30 690> 403 80<216.373 497.919>
LayerCount: 2
Fore
SplineSet
206 720 m 2
 390 720 483 558 483 360 c 0
 483 246 456 157 404 95 c 0
 353 32 287 0 208 0 c 2
 40 0 l 1
 40 720 l 1
 206 720 l 2
120 30 m 1
 144 30 168 28 190 28 c 0
 216 28 239 31 257 42 c 0
 342 97 403 215 403 355 c 0
 403 359 403 364 403 368 c 0
 399 509 341 627 250 681 c 1
 237 691 218 694 195 694 c 0
 183 694 171 693 158 692 c 0
 135 691 123 690 120 690 c 1
 120 30 l 1
EndSplineSet
Validated: 1
EndChar

StartChar: E
Encoding: 37 69 5
Width: 320
VWidth: 0
Flags: W
HStem: 0 30<124 280> 352 30<120 220> 690 30<120 276>
VStem: 40 80<30 352 382 690>
LayerCount: 2
Fore
SplineSet
280 0 m 1
 40 0 l 1
 40 720 l 1
 276 720 l 1
 276 684 l 1
 120 690 l 1
 120 382 l 1
 220 384 l 1
 220 350 l 1
 120 352 l 1
 124 30 l 1
 280 34 l 1
 280 0 l 1
EndSplineSet
Validated: 1
EndChar

StartChar: F
Encoding: 38 70 6
Width: 318
VWidth: 0
Flags: W
HStem: 0 21G<40 120> 0 21G<40 120> 352 30<120 250> 683 37<120 278> 690 30<120 278>
VStem: 40 80<0 352 382 690>
LayerCount: 2
Fore
SplineSet
40 0 m 1xac
 40 720 l 1xac
 278 720 l 1
 278 683 l 1x34
 120 690 l 1
 120 382 l 1
 250 384 l 1
 250 350 l 1
 120 352 l 1
 120 0 l 1
 40 0 l 1xac
EndSplineSet
Validated: 1
EndChar

StartChar: G
Encoding: 39 71 7
Width: 520
VWidth: 0
Flags: W
HStem: -10 40<211.549 346.42> 344 32<271 391> 700 30<235.864 337.021>
VStem: 30 81<192.672 507.78>
LayerCount: 2
Fore
SplineSet
480 376 m 1
 461 70 l 1
 410 31 357 -10 291 -10 c 0
 289 -10 288 -10 286 -10 c 0
 283 -10 280 -10 277 -10 c 0
 86 -10 30 184 30 374 c 0
 30 541 92 730 277 730 c 0
 280 730 284 730 287 730 c 0
 346 729 409 716 456 680 c 1
 431 616 l 1
 375 653 341 700 286 700 c 0
 166 700 111 482 111 360 c 0
 111 358 111 356 111 354 c 0
 111 229 140 101 209 51 c 0
 229 37 253 30 279 30 c 0
 329 30 384 70 405 94 c 1
 391 350 l 1
 271 344 l 1
 271 376 l 1
 480 376 l 1
EndSplineSet
Validated: 1
EndChar

StartChar: H
Encoding: 40 72 8
Width: 440
VWidth: 0
Flags: W
HStem: 0 21G<40 120 320 400> 0 21G<40 120 320 400> 390 30<110 330> 700 20G<40 120 320 400> 700 20G<40 120 320 400>
VStem: 40 80<0 273 510 720> 40 70<117 390 420 630> 320 80<0 273 510 720> 330 70<117 390 420 630>
LayerCount: 2
Fore
SplineSet
400 0 m 1xb1
 320 0 l 1xb1
 330 390 l 1
 110 390 l 1xb280
 120 0 l 1
 40 0 l 1
 40 720 l 1
 120 720 l 1xb4
 110 420 l 1
 330 420 l 1xb280
 320 720 l 1
 400 720 l 1
 400 0 l 1xb1
EndSplineSet
Validated: 1
EndChar

StartChar: I
Encoding: 41 73 9
Width: 300
VWidth: 0
Flags: W
HStem: 0 34<40 110 190 260> 683 37<40 110 190 260>
VStem: 110 80<30 690>
LayerCount: 2
Fore
SplineSet
40 0 m 1
 40 34 l 1
 110 30 l 1
 110 690 l 1
 40 683 l 1
 40 720 l 1
 260 720 l 1
 260 683 l 1
 190 690 l 1
 190 30 l 1
 260 34 l 1
 260 0 l 1
 40 0 l 1
EndSplineSet
Validated: 1
EndChar

StartChar: J
Encoding: 42 74 10
Width: 261
VWidth: 0
Flags: W
HStem: -10 40<40 92.9222> 700 20G<150 220.038> 700 20G<150 220.038>
VStem: 150 71<89.8782 720>
LayerCount: 2
Fore
SplineSet
40 30 m 1xd0
 41 30 41 30 42 30 c 0
 85 30 150 68 150 190 c 2
 150 720 l 1
 220 720 l 1
 221 191 l 2
 221 68 163 -10 40 -10 c 1
 40 30 l 1xd0
EndSplineSet
Validated: 1
EndChar

StartChar: K
Encoding: 43 75 11
Width: 450
VWidth: 0
Flags: W
HStem: 0 21G<40 120 321.62 430> 0 21G<40 120 321.62 430> 700 20G<40 120 327.568 430> 700 20G<40 120 327.568 430>
VStem: 40 80<0 168 461 720> 40 70<72 240 350 609>
LayerCount: 2
Fore
SplineSet
430 0 m 1xa4
 330 0 l 1
 180 358 l 1
 110 240 l 1xa4
 120 0 l 1
 40 0 l 1
 40 720 l 1
 120 720 l 1xa8
 110 350 l 1
 340 720 l 1
 430 720 l 1
 208 390 l 1
 430 0 l 1xa4
EndSplineSet
Validated: 1
EndChar

StartChar: L
Encoding: 44 76 12
Width: 270
VWidth: 0
Flags: W
HStem: 0 40<153 230> 700 20G<40 120> 700 20G<40 120>
VStem: 40 80<30 720>
LayerCount: 2
Fore
SplineSet
40 0 m 1xd0
 40 720 l 1
 120 720 l 1
 120 30 l 1
 230 40 l 1
 230 0 l 1
 40 0 l 1xd0
EndSplineSet
Validated: 1
EndChar

StartChar: M
Encoding: 45 77 13
Width: 490
VWidth: 0
Flags: W
HStem: 0 21G<40 115 375 450> 0 21G<40 115 375 450> 700 20G<40 112.229 378.114 450> 700 20G<40 112.229 378.114 450>
VStem: 40 75<0 261.333> 40 60<298.667 560> 375 75<0 261.333> 390 60<298.667 560>
LayerCount: 2
Fore
SplineSet
375 0 m 1xa2
 390 560 l 1
 280 330 l 1
 222 330 l 1
 100 560 l 1xa5
 115 0 l 1
 40 0 l 1xa8
 40 720 l 1
 104 720 l 1
 248 370 l 1
 386 720 l 1
 450 720 l 1xa5
 450 0 l 1
 375 0 l 1xa2
EndSplineSet
Validated: 1
EndChar

StartChar: N
Encoding: 46 78 14
Width: 490
VWidth: 0
Flags: W
HStem: 0 21G<40 120 352.063 450> 0 21G<40 120 352.063 450> 700 20G<40 132.317 376 450> 700 20G<40 132.317 376 450>
VStem: 40 80<0 189> 40 70<189 630> 381 69<102 720>
LayerCount: 2
Fore
SplineSet
381 102 m 1xa6
 376 720 l 1
 450 720 l 1
 450 0 l 1
 360 0 l 1
 110 630 l 1xa6
 120 0 l 1
 40 0 l 1xaa
 40 720 l 1
 124 720 l 1
 381 102 l 1xa6
EndSplineSet
Validated: 1
EndChar

StartChar: O
Encoding: 47 79 15
Width: 550
VWidth: 0
Flags: W
HStem: -10 36<211.407 338.853> 694 36<214.063 335.552>
VStem: 30 79<174.698 541.626> 441 79<176.34 537.859>
LayerCount: 2
Fore
SplineSet
275 730 m 1
 468 730 520 544 520 369 c 0
 520 367 520 366 520 364 c 0
 520 305 515 249 505 201 c 0
 481 73 391 -10 278 -10 c 0
 277 -10 277 -10 276 -10 c 0
 245 -10 197 1 170 14 c 0
 49 82 32 226 30 362 c 0
 32 555 79 724 275 730 c 1
275 26 m 0
 409 26 441 203 441 350 c 0
 441 408 436 461 430 497 c 0
 413 585 379 694 276 694 c 0
 169 694 136 586 120 497 c 0
 114 452 109 398 109 344 c 0
 109 189 145 26 275 26 c 0
EndSplineSet
Validated: 1
Substitution2: "'cv01' Character Variants 01 in Latin lookup 0-1" O.min
EndChar

StartChar: P
Encoding: 48 80 16
Width: 441
VWidth: 0
Flags: W
HStem: 0 21G<40 120> 0 21G<40 120> 350 26<120 282.697> 693 27<120 285.878>
VStem: 40 80<0 350 376 690> 355 56<437.486 630.082>
LayerCount: 2
Fore
SplineSet
40 720 m 1xbc
 232 720 l 2
 290 720 330 705 363 678 c 0
 395 651 411 590 411 533 c 0
 411 480 394 420 363 394 c 0
 332 365 289 350 236 350 c 2
 120 350 l 1
 120 0 l 1
 40 0 l 1
 40 720 l 1xbc
226 377 m 1
 313 377 355 443 355 530 c 0
 355 617 317 693 230 693 c 1
 120 690 l 1
 118 376 l 1
 226 377 l 1
EndSplineSet
Validated: 1
EndChar

StartChar: Q
Encoding: 49 81 17
Width: 600
VWidth: 0
Flags: W
HStem: -10 36<211.407 338.619> 694 36<214.063 335.552>
VStem: 30 79<174.698 541.626> 441 79<192.394 537.859>
LayerCount: 2
Fore
SplineSet
275 730 m 1
 468 730 520 544 520 369 c 0
 520 367 520 366 520 364 c 0
 520 305 515 249 505 201 c 0
 500 177 493 154 484 133 c 1
 590 30 l 1
 562 -10 l 1
 460 89 l 1
 418 27 353 -10 278 -10 c 0
 277 -10 277 -10 276 -10 c 0
 245 -10 197 1 170 14 c 0
 49 82 32 226 30 362 c 0
 32 555 79 724 275 730 c 1
425 190 m 1
 437 241 441 297 441 350 c 0
 441 408 436 461 430 497 c 0
 413 585 379 694 276 694 c 0
 169 694 136 586 120 497 c 0
 114 452 109 398 109 344 c 0
 109 189 145 26 275 26 c 0
 344 26 386 73 410 138 c 1
 202 340 l 1
 230 380 l 1
 425 190 l 1
EndSplineSet
Validated: 1
Substitution2: "'cv01' Character Variants 01 in Latin lookup 0-1" Q.alt
EndChar

StartChar: R
Encoding: 50 82 18
Width: 470
VWidth: 0
InSpiro: 1
Flags: W
HStem: 0 21G<40 120 332.778 430> 0 21G<40 120 332.778 430> 360 30<110 210> 690 30<110 292.894>
VStem: 40 80<0 252> 40 70<108 360 390 690> 360 65<450.823 632.289>
LayerCount: 2
Fore
SplineSet
210 360 m 1xb6
 110 360 l 1xb6
 120 0 l 1
 40 0 l 1xba
 40 720 l 1
 216 720 l 2
 312 720 388 689 412 616 c 0
 420 595 425 560 425 538 c 0
 425 430 370 376 270 363 c 1
 430 0 l 1
 340 0 l 1
 210 360 l 1xb6
  Spiro
    210 360 v
    110 360 v
    120 0 v
    40 0 v
    40 720 v
    216 720 ]
    304.069 709.281 o
    371.907 675.361 o
    412 616 o
    418.92 591.361 o
    423.411 563.306 o
    425 538 o
    407.073 447.592 o
    354.561 390.106 o
    270 363 v
    430 0 v
    340 0 v
    0 0 z
  EndSpiro
208 390 m 2
 308 390 360 442 360 540 c 0
 360 639 310 694 212 694 c 1
 110 690 l 1
 110 390 l 1
 208 390 l 2
  Spiro
    208 390 ]
    291.784 407.077 o
    342.849 457.622 o
    360 540 o
    343.441 623.857 o
    293.86 676.11 o
    212 694 v
    110 690 v
    110 390 v
    0 0 z
  EndSpiro
EndSplineSet
Validated: 1
EndChar

StartChar: S
Encoding: 51 83 19
Width: 450
VWidth: 0
Flags: W
HStem: -10 37<124.923 256.152> 696 34<177.736 292.643>
VStem: 20 80<489.57 631.582> 332 78<109.735 269.513>
LayerCount: 2
Fore
SplineSet
350 644 m 1
 314 664 283 694 240 696 c 0
 239 696 239 696 238 696 c 0
 198 696 144 666 124 636 c 0
 107 612 100 576 100 547 c 0
 100 428 310 416 375 316 c 0
 398 282 410 250 410 210 c 0
 410 67 302 -10 186 -10 c 0
 132 -10 78 -1 30 27 c 1
 50 94 l 1
 90 69 132 27 191 27 c 0
 228 27 265 45 290 70 c 0
 321 101 332 157 332 199 c 0
 332 327 168 346 91 408 c 0
 50 441 20 488 20 542 c 0
 20 672 127 730 240 730 c 0
 288 730 334 724 375 709 c 1
 350 644 l 1
EndSplineSet
Validated: 1
EndChar

StartChar: T
Encoding: 52 84 20
Width: 500
VWidth: 0
Flags: W
HStem: 0 21G<210 290> 0 21G<210 290> 676 44<30 122 378 470>
VStem: 210 80<0 690>
LayerCount: 2
Fore
SplineSet
286 690 m 1xb0
 290 0 l 1
 210 0 l 1
 214 690 l 1
 30 676 l 1
 30 720 l 1
 470 720 l 1
 470 676 l 1
 286 690 l 1xb0
EndSplineSet
Validated: 1
EndChar

StartChar: U
Encoding: 53 85 21
Width: 490
VWidth: 0
Flags: W
HStem: -10 40<182.065 313.162> 700 20G<40 120 370 450> 700 20G<40 120 370 450>
VStem: 40 80<103.438 720> 370 80<102.783 720>
LayerCount: 2
Fore
SplineSet
450 230 m 2xd8
 450 80 388 -10 248 -10 c 0
 109 -10 40 70 40 230 c 2
 40 720 l 1
 120 720 l 1
 120 716 120 709 120 701 c 0
 120 621 114 367 114 234 c 0
 114 193 114 164 116 154 c 0
 125 90 175 30 248 30 c 0
 322 30 364 88 374 154 c 0
 375 164 376 193 376 234 c 0
 376 373 370 644 370 710 c 0
 370 714 370 718 370 720 c 1
 450 720 l 1
 450 230 l 2xd8
EndSplineSet
Validated: 1
EndChar

StartChar: V
Encoding: 54 86 22
Width: 572
VWidth: 0
Flags: W
HStem: 0 21G<236.278 335.722> 0 21G<236.278 335.722> 700 20G<36 121.152 450.848 536> 700 20G<36 121.152 450.848 536>
LayerCount: 2
Fore
SplineSet
330 0 m 1xa0
 242 0 l 1
 36 720 l 1
 116 720 l 1
 286 60 l 1
 456 720 l 1
 536 720 l 1
 330 0 l 1xa0
EndSplineSet
Validated: 1
EndChar

StartChar: W
Encoding: 55 87 23
Width: 591
VWidth: 0
Flags: W
HStem: 0 21G<88.6111 186.354 403.646 501.417> 0 21G<88.6111 186.354 403.646 501.417> 700 20G<40 109.355 481.613 551> 700 20G<40 109.355 481.613 551>
LayerCount: 2
Fore
SplineSet
180 0 m 1xa0
 90 0 l 1
 40 720 l 1
 108 720 l 1
 150 100 l 1
 280 420 l 1
 310 420 l 1
 440 100 l 1
 483 720 l 1
 551 720 l 1
 500 0 l 1
 410 0 l 1
 295 362 l 1
 180 0 l 1xa0
EndSplineSet
Validated: 1
EndChar

StartChar: X
Encoding: 56 88 24
Width: 530
VWidth: 0
Flags: W
HStem: 0 21G<20 109.677 418.387 510> 0 21G<20 109.677 418.387 510> 700 20G<26 117.31 413.379 504> 700 20G<26 117.31 413.379 504>
LayerCount: 2
Fore
SplineSet
430 0 m 1xa0
 250 310 l 1
 100 0 l 1
 20 0 l 1
 230 370 l 1
 26 720 l 1
 106 720 l 1
 270 430 l 1
 424 720 l 1
 504 720 l 1
 280 380 l 1
 510 0 l 1
 430 0 l 1xa0
EndSplineSet
Validated: 1
EndChar

StartChar: Y
Encoding: 57 89 25
Width: 492
VWidth: 0
Flags: W
HStem: 0 21G<210 280> 0 21G<210 280> 700 20G<20 99.3333 390.545 472> 700 20G<20 99.3333 390.545 472>
VStem: 210 70<0 231> 220 60<99 330>
LayerCount: 2
Fore
SplineSet
280 330 m 1xa4
 280 0 l 1
 210 0 l 1xa8
 220 330 l 1
 20 720 l 1
 90 720 l 1
 244 390 l 1
 400 720 l 1
 472 720 l 1
 280 330 l 1xa4
EndSplineSet
Validated: 1
EndChar

StartChar: Z
Encoding: 58 90 26
Width: 520
VWidth: 0
Flags: W
HStem: 0 43.333<288.039 470> 0 30.0225<124 305.961> 676.667 43.333<50 252.462> 689.667 30.333<223.538 426>
LayerCount: 2
Fore
SplineSet
480 670 m 1x10
 124 30.0224609375 l 1x50
 470 43.3330078125 l 1
 470 0 l 1x80
 40 0 l 1
 40 58 l 1
 426 689.666992188 l 1x50
 50 676.666992188 l 1
 50 720 l 1x20
 480 720 l 1
 480 670 l 1x10
EndSplineSet
Validated: 1
EndChar

StartChar: two
Encoding: 18 50 27
Width: 474
VWidth: 0
Flags: W
HStem: 0 73<270 434> 0 59<106 270> 683 47<143.678 282.669>
VStem: 355 69<438.468 611.684>
LayerCount: 2
Fore
SplineSet
51 690 m 1x70
 95 709 153 730 210 730 c 2
 309 730 379 682 408 612 c 0
 419 587 424 560 424 530 c 0
 424 410 348 311 282 244 c 0
 226 185 163 122 106 59 c 1x70
 434 73 l 1
 434 0 l 1xb0
 40 0 l 1
 40 60 l 1
 136 167 204 238 278 342 c 0
 309 384 355 461 355 527 c 0
 355 621 293 683 197 683 c 0
 176 683 155 668 138 658 c 0
 114 643 92 629 60 618 c 1
 51 690 l 1x70
EndSplineSet
Validated: 1
EndChar

StartChar: zero
Encoding: 16 48 28
Width: 490
VWidth: 0
Flags: W
HStem: -10 40<183.511 301.192> 690 40<190.012 307.933>
VStem: 40 94<143.98 568.339> 356 94<152.176 594.321>
LayerCount: 2
Fore
SplineSet
450 360 m 0
 450 147 409 -10 246 -10 c 0
 59 -10 40 185 40 360 c 0
 40 534 64 730 246 730 c 0
 448 730 450 535 450 360 c 0
356 354 m 0
 356 356 356 358 356 360 c 0
 356 406 359 455 359 502 c 0
 359 603 344 690 246 690 c 0
 144 690 133 566 133 447 c 0
 133 417 134 387 134 360 c 0
 134 323 132 281 132 241 c 0
 132 132 146 30 247 30 c 0
 348 30 356 174 356 293 c 0
 356 314 356 335 356 354 c 0
EndSplineSet
Validated: 1
EndChar

StartChar: one
Encoding: 17 49 29
Width: 280
VWidth: 0
Flags: W
HStem: 0 40<40 100 192.4 240> 710 20G<119.02 170.99> 710 20G<119.02 170.99>
VStem: 100 80<92.25 649> 100 72<33 341.25 603.75 649>
LayerCount: 2
Fore
SplineSet
40 0 m 1xc8
 40 40 l 1
 100 33 l 1xc8
 100 529 l 1
 94 649 l 1
 40 639 l 1
 40 679 l 1
 170 730 l 1
 180 528 l 1xd0
 172 30 l 1
 240 40 l 1
 240 0 l 1
 40 0 l 1xc8
EndSplineSet
Validated: 1
EndChar

StartChar: three
Encoding: 19 51 30
Width: 517
VWidth: 0
Flags: W
HStem: -10 36<154.332 294.854> 376 37<210 272.781> 710 20G<224.5 307.5> 710 20G<224.5 307.5>
VStem: 358 84<471.192 633.419> 397 80<117.481 272.156>
LayerCount: 2
Fore
SplineSet
477 203 m 0xe4
 477 80 355 -10 220 -10 c 0
 155 -10 92 10 40 48 c 1
 64 116 l 1
 104 85 151 26 215 26 c 0
 320 26 397 107 397 196 c 0xe4
 397 300 285 373 200 376 c 1
 210 413 l 1
 212 413 215 413 217 413 c 0
 297 413 358 465 358 544 c 0
 358 608 328 685 255 690 c 1
 201 683 152 642 108 614 c 1
 82 681 l 1
 130 716 194 730 255 730 c 0
 360 730 442 660 442 551 c 0xe8
 442 466 388 423 318 400 c 1
 405 379 477 293 477 203 c 0xe4
EndSplineSet
Validated: 1
EndChar

StartChar: four
Encoding: 20 52 31
Width: 550
VWidth: 0
Flags: W
HStem: 0 40<280 329 441 490> 170 50<100 350 420 510> 700 20G<327.755 420> 700 20G<327.755 420>
VStem: 350 70<30 170 220 620>
LayerCount: 2
Fore
SplineSet
350 170 m 1xe8
 40 170 l 1
 40 230 l 1
 340 720 l 1
 420 720 l 1
 420 220 l 1
 510 226 l 1
 510 170 l 1
 420 170 l 1
 420 30 l 1
 490 40 l 1
 490 0 l 1
 280 0 l 1
 280 40 l 1
 350 30 l 1
 350 170 l 1xe8
350 620 m 1
 100 220 l 1
 350 220 l 1
 350 620 l 1
EndSplineSet
Validated: 1
EndChar

StartChar: five
Encoding: 21 53 32
Width: 487
VWidth: 0
Flags: W
HStem: -12 36<145.034 271.2> 390 48<158.462 296.08> 650 70<216 377> 660 60<147 308>
VStem: 372 75<129.564 310.612>
LayerCount: 2
Fore
SplineSet
128 430 m 1xd8
 155 436 191 438 223 438 c 0
 290 438 343 418 383 377 c 0
 418 340 447 290 447 222 c 0
 447 90 329 -12 208 -12 c 0
 155 -12 80 8 40 26 c 1
 55 97 l 1
 100 75 148 24 208 24 c 0
 301 24 372 126 372 222 c 0
 372 317 309 390 217 390 c 0
 177 390 164 373 137 350 c 1
 81 376 l 1
 81 720 l 1xd8
 377 720 l 1
 377 650 l 1xe8
 147 660 l 1
 128 430 l 1xd8
EndSplineSet
Validated: 1
EndChar

StartChar: six
Encoding: 22 54 33
Width: 547
VWidth: 0
Flags: W
HStem: -10 22<233.279 326.761> 351 23<225.821 321.74> 698 32<261.722 372.392>
VStem: 40 91<331 458.047> 412 95<95.0762 267.542>
LayerCount: 2
Fore
SplineSet
131 331 m 1
 167 356 221 374 281 374 c 0
 407 374 507 302 507 178 c 0
 507 116 477 73 443 43 c 0
 405 11 346 -10 279 -10 c 0
 210 -10 155 11 117 43 c 0
 60 92 40 181 40 276 c 0
 40 377 63 484 90 556 c 0
 128 656 202 730 313 730 c 0
 369 730 418 721 458 704 c 1
 445 644 l 1
 402 658 367 698 316 698 c 0
 282 698 254 681 234 664 c 0
 185 624 151 573 140 493 c 0
 132 439 132 387 131 331 c 1
412 178 m 0
 412 262 359 351 275 351 c 0
 190 351 143 266 143 181 c 0
 143 95 197 12 281 12 c 0
 361 12 412 95 412 178 c 0
EndSplineSet
Validated: 1
EndChar

StartChar: seven
Encoding: 23 55 34
Width: 400
VWidth: 0
Flags: W
HStem: 0 41<50 88.1818 209.818 255> 658 62<40 217.1> 668 42<136 293>
VStem: 40 320<606 648>
LayerCount: 2
Fore
SplineSet
360 653 m 1xb0
 330 591 298 526 273 457 c 0
 228 333 190 193 184 30 c 1
 255 40 l 1
 255 0 l 1
 50 0 l 1
 50 41 l 1
 110 30 l 1
 112 62 118 96 124 131 c 0
 143 243 174 351 208 447 c 0
 233 522 262 595 293 668 c 1xb0
 40 658 l 1
 40 720 l 1xd0
 360 710 l 1
 360 653 l 1xb0
EndSplineSet
Validated: 1
EndChar

StartChar: eight
Encoding: 24 56 35
Width: 553
VWidth: 0
Flags: W
HStem: -10 24<230.924 323.827> 362 31<223.344 328.241> 709 21<225.485 311.987>
VStem: 40 94<102.046 270.071> 64 91<468.707 628.638> 400 89<468.329 631.535> 414 99<104.489 275.768>
LayerCount: 2
Fore
SplineSet
513 188 m 0xe2
 513 109 458 37 373 4 c 0
 345 -7 312 -10 278 -10 c 0
 216 -10 146 10 108 44 c 0
 63 84 40 136 40 182 c 0xf2
 40 272 105 359 208 380 c 1
 113 403 64 475 64 548 c 0
 64 616 107 685 193 716 c 0
 220 726 249 730 278 730 c 0
 379 730 489 668 489 547 c 0xec
 489 469 433 400 348 380 c 1
 431 360 513 294 513 188 c 0xe2
414 181 m 0
 414 267 359 362 274 362 c 0
 190 362 134 270 134 190 c 0
 134 84 212 14 279 14 c 0
 340 14 414 81 414 181 c 0
276 393 m 0
 341 393 400 461 400 542 c 0
 400 627 343 709 271 709 c 0
 193 709 155 633 155 555 c 0xec
 155 475 196 393 276 393 c 0
EndSplineSet
Validated: 1
EndChar

StartChar: nine
Encoding: 25 57 36
Width: 548
VWidth: 0
InSpiro: 1
Flags: W
HStem: 0 31<180.587 283.114> 356 23<224.148 320.64> 710 30<208.997 325.553>
VStem: 40 95<463.523 635.62> 404 104<362.02 597.471> 415 93<270.471 399>
LayerCount: 2
Fore
SplineSet
416 399 m 1xf4
 379 374 326 356 266 356 c 0
 163 356 90 402 57 473 c 0
 45 499 40 525 40 552 c 0
 40 614 69 657 104 687 c 0
 140 718 199 740 265 740 c 0
 438 740 508 624 508 458 c 0xf8
 508 349 488 255 457 173 c 0
 448 149 437 128 426 110 c 0
 381 37 317 0 234 0 c 0
 177 0 129 8 89 25 c 1
 102 85 l 1
 138 73 166 51 201 37 c 0
 211 32 221 31 231 31 c 0
 263 31 293 50 312 65 c 0
 362 106 396 156 407 237 c 0
 412 278 415 318 415 359 c 1
 416 399 l 1xf4
  Spiro
    416 399 v
    374.047 376.76 o
    323.279 361.582 o
    266 356 o
    173.452 370.527 o
    102.904 411.163 o
    57 473 o
    47.2668 499.011 o
    41.7372 525.323 o
    40 552 o
    48.798 607.839 o
    71.8803 652.484 o
    104 687 o
    147.025 714.495 o
    201.985 733.161 o
    265 740 o
    404.781 703.848 o
    483.495 604.764 o
    508 458 o
    501.679 353.988 o
    483.977 259.021 o
    457 173 o
    447.418 150.022 o
    436.915 128.98 o
    426 110 o
    374.724 49.0859 o
    310.596 12.2718 o
    234 0 o
    180.014 2.69826 o
    131.658 10.9741 o
    89 25 v
    102 85 v
    135.857 70.35 o
    167.81 52.9827 o
    201 37 o
    210.99 33.2249 o
    221.01 31.4434 o
    231 31 o
    261.97 36.4714 o
    289.692 49.5336 o
    312 65 o
    356.369 109.765 o
    388.618 165.581 o
    407 237 o
    411.293 277.7 o
    414.039 318.3 o
    415 359 v
    0 0 z
  EndSpiro
135 552 m 0
 135 468 187 379 271 379 c 0
 356 379 404 463 404 547 c 0
 404 655 335 710 267 710 c 0
 200 710 135 658 135 552 c 0
  Spiro
    135 552 o
    151.56 469.892 o
    198.468 405.136 o
    271 379 o
    343.2 403.842 o
    388.438 466.186 o
    404 547 o
    383.631 637.187 o
    332.68 691.777 o
    267 710 o
    203.059 692.627 o
    154.297 640.004 o
    0 0 z
  EndSpiro
EndSplineSet
Validated: 1
EndChar

StartChar: period
Encoding: 14 46 37
Width: 164
VWidth: 0
Flags: W
HStem: -10 84<45.8241 118.176>
VStem: 40 84<-4.17594 68.1759>
LayerCount: 2
Fore
SplineSet
82 -10 m 0
 60 -10 40 10 40 32 c 0
 40 54 60 74 82 74 c 0
 104 74 124 54 124 32 c 0
 124 10 104 -10 82 -10 c 0
EndSplineSet
Validated: 1
EndChar

StartChar: comma
Encoding: 12 44 38
Width: 172
VWidth: 0
Flags: W
HStem: -81 151
VStem: 53 79<-1 70>
LayerCount: 2
Fore
SplineSet
40 -81 m 1
 40 -63 l 1
 70 -43 79 -30 79 -20 c 0
 79 -5 53 -1 53 -1 c 1
 53 70 l 1
 132 70 l 1
 132 -63 40 -81 40 -81 c 1
EndSplineSet
Validated: 1
EndChar

StartChar: slash
Encoding: 15 47 41
Width: 421
VWidth: 0
Flags: W
HStem: 0 21G<80 151.417> 0 21G<80 151.417> 700 20G<267.639 341> 700 20G<267.639 341>
VStem: 80 261
LayerCount: 2
Fore
SplineSet
273 720 m 1xa8
 341 720 l 1
 146 0 l 1
 80 0 l 1
 273 720 l 1xa8
EndSplineSet
Validated: 1
EndChar

StartChar: backslash
Encoding: 60 92 42
Width: 421
VWidth: 0
Flags: W
HStem: 0 21G<269.583 341> 0 21G<269.583 341> 700 20G<80 153.361> 700 20G<80 153.361>
VStem: 80 261
LayerCount: 2
Fore
SplineSet
275 0 m 1xa8
 80 720 l 1
 148 720 l 1
 341 0 l 1
 275 0 l 1xa8
EndSplineSet
Validated: 1
EndChar

StartChar: exclam
Encoding: 1 33 43
Width: 169
VWidth: 0
Flags: W
HStem: -10 84<50.8241 123.176> 700 20G<40 122.541> 700 20G<40 122.541>
VStem: 40 82<482.5 720> 45 84<-4.17594 68.1759>
LayerCount: 2
Fore
SplineSet
68 220 m 1xd0
 59 390 50 550 40 720 c 1
 122 720 l 1
 127 535 l 1
 110 220 l 1
 68 220 l 1xd0
EndSplineSet
Refer: 37 46 N 1 0 0 1 5 0 2
Validated: 1
EndChar

StartChar: question
Encoding: 31 63 44
Width: 439
VWidth: 0
Flags: W
HStem: -10 84<147.824 220.176> 687 45<130.701 282.167>
VStem: 140 60<221.663 354> 142 84<-4.17594 68.1759> 162 41<220 334.261> 333 66<475.653 635.769>
LayerCount: 2
Fore
SplineSet
333 559 m 0xe4
 333 644 281 687 195 687 c 0
 178 687 158 681 136 668 c 0
 114 656 90 644 64 631 c 1
 40 691 l 1
 101 718 154 732 200 732 c 0
 322 732 399 681 399 562 c 0
 399 469 345 403 282 372 c 0
 257 360 230 354 200 354 c 1xe4
 203 220 l 1
 162 220 l 1xcc
 151 255 140 321 140 372 c 0
 140 374 140 376 140 378 c 1
 182 387 206 395 240 410 c 0
 296 435 333 490 333 559 c 0xe4
EndSplineSet
Refer: 37 46 N 1 0 0 1 102 0 2
Validated: 1
EndChar

StartChar: numbersign
Encoding: 3 35 45
Width: 700
VWidth: 0
Flags: W
HStem: 1 21G<136 212.158 344 420.158> 1 21G<136 212.158 344 420.158> 203 67<80 132.267 264 320 472 620> 218 52<139.733 192 330 400> 453 66<80 163 316 378 526 620> 467 52<378 452> 699 20G<283.6 360 491.6 568> 699 20G<283.6 360 491.6 568>
LayerCount: 2
Fore
SplineSet
458 203 m 1x2a
 416 1 l 1
 344 1 l 1
 400 218 l 1x90
 250 203 l 1x20
 208 1 l 1
 136 1 l 1
 192 218 l 1x90
 80 203 l 1
 80 270 l 1x20
 192 270 l 1
 246 467 l 1x14
 80 453 l 1
 80 519 l 1x08
 244 519 l 1x04
 288 719 l 1
 360 719 l 1
 316 519 l 1x0a
 452 519 l 1x04
 496 719 l 1
 568 719 l 1
 526 519 l 1
 620 519 l 1
 620 453 l 1
 512 453 l 1
 472 270 l 1
 620 270 l 1
 620 203 l 1
 458 203 l 1x2a
302 453 m 1x08
 264 270 l 1x28
 402 270 l 1
 454 467 l 1x14
 302 453 l 1x08
EndSplineSet
Validated: 1
EndChar

StartChar: dollar
Encoding: 4 36 46
Width: 470
VWidth: 0
Flags: W
HStem: -10 37<144.923 249> 696 34<210.407 313.305>
VStem: 40 80<488.465 631.562> 352 78<109.573 269.757>
LayerCount: 2
Fore
SplineSet
370 644 m 1
 334 664 302 696 258 696 c 0
 243 696 226 692 210 685 c 1
 242 420 l 1
 300 391 364 364 395 316 c 0
 418 282 430 250 430 210 c 0
 430 104 371 34 293 5 c 1
 300 -54 l 1
 261 -59 l 1
 254 -5 l 1
 238 -8 222 -10 206 -10 c 0
 152 -10 98 -1 50 27 c 1
 70 94 l 1
 110 69 152 27 211 27 c 0
 224 27 237 29 249 33 c 1
 210 354 l 1
 174 371 137 387 111 408 c 0
 70 441 40 488 40 542 c 0
 40 634 94 690 166 715 c 1
 160 765 l 1
 199 769 l 1
 205 725 l 1
 223 728 241 730 260 730 c 0
 308 730 354 724 395 709 c 1
 370 644 l 1
253 332 m 1
 287 51 l 1
 296 57 303 63 310 70 c 0
 341 101 352 157 352 199 c 0
 352 266 307 303 253 332 c 1
199 442 m 1
 172 664 l 1
 160 655 150 645 144 636 c 0
 127 612 120 576 120 547 c 0
 120 499 154 468 199 442 c 1
EndSplineSet
Validated: 1
EndChar

StartChar: percent
Encoding: 5 37 47
Width: 736
VWidth: 0
Flags: W
HStem: 0 21G<237 308.417> 0 21G<237 308.417> 32 57<470.168 598.144> 260 60<469.403 602.042> 400 57<139.034 267.78> 628 60<138.055 270.646> 700 20G<424.639 498> 700 20G<424.639 498>
VStem: 80 16<509.15 573.463> 310 15<515.154 572.719> 412 15<143.976 204.411> 642 14<149.968 204.018>
LayerCount: 2
Fore
SplineSet
430 720 m 1xbef0
 498 720 l 1
 303 0 l 1
 237 0 l 1
 430 720 l 1xbef0
206 688 m 0
 284 688 325 614 325 542 c 0
 325 456 266 400 204 400 c 0
 141 400 80 458 80 543 c 0
 80 615 125 688 206 688 c 0
96 541 m 0
 96 488 152 457 204 457 c 0
 265 457 310 504 310 544 c 0
 310 582 268 628 208 628 c 0
 154 628 96 596 96 541 c 0
537 320 m 0
 615 320 656 246 656 174 c 0
 656 88 597 32 535 32 c 0
 471 32 412 90 412 175 c 0
 412 247 457 320 537 320 c 0
427 173 m 0
 427 120 484 89 535 89 c 0
 597 89 642 136 642 176 c 0
 642 215 600 260 539 260 c 0
 485 260 427 228 427 173 c 0
EndSplineSet
Validated: 1
EndChar

StartChar: ampersand
Encoding: 6 38 48
Width: 663
VWidth: 0
Flags: W
HStem: -10 34<195.424 312.034> 0 26<555.938 623> 350 55<533.823 622> 714 16<234.677 295.247>
VStem: 40 84<100.248 274.181> 110 64<516.988 665.836> 361 65<522.843 667.224>
LayerCount: 2
Fore
SplineSet
585 26 m 0x76
 598 26 611 29 623 31 c 1
 623 0 l 1
 551 0 l 2x76
 537 0 526 3 518 9 c 0
 493 26 467 64 446 92 c 1
 394 24 330 -10 254 -10 c 0
 190 -10 137 15 102 48 c 0
 67 79 40 128 40 190 c 0xba
 40 237 55 269 78 299 c 0
 112 345 156 378 209 416 c 1
 170 460 110 514 110 593 c 0
 110 662 156 703 209 720 c 0
 226 726 253 730 270 730 c 0
 356 730 426 681 426 595 c 0
 426 491 333 460 274 410 c 1
 426 226 l 1
 451 291 467 339 500 388 c 0
 509 402 519 414 530 423 c 1
 556 414 587 405 622 405 c 1
 622 350 l 1
 588 350 557 363 530 373 c 1
 512 300 496 234 479 161 c 1
 499 132 520 92 538 63 c 0
 549 45 561 26 585 26 c 0x76
390 164 m 1
 234 383 l 1
 192 353 163 322 148 289 c 0
 132 257 124 224 124 192 c 0
 124 103 170 24 256 24 c 0xba
 330 24 378 97 390 164 c 1
174 596 m 0x36
 174 528 215 486 252 444 c 1
 294 474 336 501 354 551 c 0
 359 564 361 579 361 595 c 0
 361 646 333 686 299 705 c 0
 287 711 277 714 266 714 c 0
 237 714 214 695 201 677 c 0
 186 657 174 629 174 596 c 0x36
EndSplineSet
Validated: 1
EndChar

StartChar: parenleft
Encoding: 8 40 49
Width: 423
VWidth: 0
Flags: W
VStem: 80 78<225.798 491.649>
LayerCount: 2
Fore
SplineSet
343 -21 m 5
 312 -43 l 5
 237 9 179 70 139 139 c 4
 100 209 80 282 80 358 c 4
 80 436 100 509 139 577 c 4
 178 644 235 705 312 758 c 5
 333 727 l 5
 272 677 227 624 199 568 c 4
 174 515 158 438 158 361 c 4
 158 360 158 360 158 359 c 4
 158 358 158 357 158 357 c 4
 158 279 174 197 201 145 c 4
 232 84 290 23 343 -21 c 5
EndSplineSet
Validated: 1
EndChar

StartChar: parenright
Encoding: 9 41 50
Width: 423
VWidth: 0
Flags: W
VStem: 265 78<225.798 491.649>
LayerCount: 2
Fore
SplineSet
80 -21 m 5
 133 23 191 84 222 145 c 4
 249 197 265 279 265 357 c 4
 265 357 265 358 265 359 c 4
 265 360 265 360 265 361 c 4
 265 438 249 515 224 568 c 4
 196 624 151 677 90 727 c 5
 111 758 l 5
 188 705 245 644 284 577 c 4
 323 509 343 436 343 358 c 4
 343 282 323 209 284 139 c 4
 244 70 186 9 111 -43 c 5
 80 -21 l 5
EndSplineSet
Validated: 1
EndChar

StartChar: asterisk
Encoding: 10 42 51
Width: 368
VWidth: 0
Flags: W
HStem: 482 318
VStem: 161 46<482 610 674 800>
LayerCount: 2
Fore
SplineSet
303 535 m 1
 202 610 l 1
 207 482 l 1
 161 482 l 1
 166 610 l 1
 64 534 l 1
 40 575 l 1
 154 642 l 1
 40 709 l 1
 64 750 l 1
 166 673 l 1
 161 800 l 1
 207 800 l 1
 202 674 l 1
 303 750 l 1
 328 709 l 1
 216 642 l 1
 328 575 l 1
 303 535 l 1
EndSplineSet
Validated: 1
EndChar

StartChar: plus
Encoding: 11 43 52
Width: 500
VWidth: 0
Flags: W
HStem: 326 61<40 221 285 460>
VStem: 221 64<150 326 387 570>
LayerCount: 2
Fore
SplineSet
285 387 m 1
 460 387 l 1
 460 326 l 1
 285 326 l 1
 285 150 l 1
 221 150 l 1
 221 326 l 1
 40 326 l 1
 40 387 l 1
 221 387 l 1
 221 570 l 1
 285 570 l 1
 285 387 l 1
EndSplineSet
Validated: 1
EndChar

StartChar: hyphen
Encoding: 13 45 53
Width: 284
VWidth: 0
Flags: W
HStem: 328 58<40 244>
VStem: 40 204<328 386>
LayerCount: 2
Back
SplineSet
689.5 18 m 1
 134.5 18 l 1
 134.5 76 l 1
 689.5 76 l 1
 689.5 18 l 1
612.5 271 m 1
 211.5 271 l 1
 211.5 329 l 1
 612.5 329 l 1
 612.5 271 l 1
EndSplineSet
Fore
SplineSet
40 328 m 1
 40 386 l 1
 244 386 l 1
 244 328 l 1
 40 328 l 1
EndSplineSet
Validated: 1
EndChar

StartChar: underscore
Encoding: 63 95 54
Width: 716
VWidth: 0
Flags: W
HStem: 0 58<80 636>
LayerCount: 2
Fore
SplineSet
636 0 m 1
 80 0 l 1
 80 58 l 1
 636 58 l 1
 636 0 l 1
EndSplineSet
Validated: 1
EndChar

StartChar: less
Encoding: 28 60 55
Width: 580
VWidth: 0
Flags: W
LayerCount: 2
Fore
SplineSet
500 150 m 1
 470 90 l 1
 80 330 l 1
 80 390 l 1
 470 640 l 1
 500 580 l 1
 130 360 l 1
 500 150 l 1
EndSplineSet
Validated: 1
EndChar

StartChar: greater
Encoding: 30 62 56
Width: 580
VWidth: 0
Flags: W
LayerCount: 2
Fore
SplineSet
80 150 m 1
 450 360 l 1
 80 580 l 1
 110 640 l 1
 500 390 l 1
 500 330 l 1
 110 90 l 1
 80 150 l 1
EndSplineSet
Validated: 1
EndChar

StartChar: at
Encoding: 32 64 57
Width: 723
VWidth: 0
InSpiro: 1
Flags: W
HStem: -60 27<282.452 425.403> 111 37<445.329 520.445> 147 25<247.5 324.14> 505 20<351.852 403.685> 725 25<344.612 457.794>
VStem: 40 66<156.806 433.695> 186 69<191.887 362.609> 620 63<309.955 551.25>
LayerCount: 2
Fore
SplineSet
517 -39 m 1xdf
 474 -53 429 -60 383 -60 c 0
 362 -60 341 -59 319 -56 c 0
 223 -43 150 1 100 76 c 0
 60 133 40 200 40 280 c 0
 40 304 42 329 46 356 c 0
 64 490 108 592 178 662 c 0
 236 721 304 750 381 750 c 0
 396 750 411 749 426 747 c 0
 582 726 683 605 683 432 c 0
 683 411 682 389 679 367 c 0
 667 277 587 111 489 111 c 0xdf
 469 111 448 118 426 135 c 0
 403 153 393 181 390 218 c 1
 369 191 341 163 305 151 c 0
 295 148 286 147 277 147 c 0xbf
 218 147 186 215 186 281 c 0
 186 290 187 299 188 308 c 0
 198 377 222 431 262 472 c 0
 296 506 336 525 375 525 c 0
 403 525 431 515 457 496 c 1
 461 507 l 1
 535 497 l 1
 502 400 478 324 448 229 c 0
 443 212 444 216 441 200 c 0
 440 196 440 192 440 189 c 0
 440 164 452 151 476 148 c 0
 478 148 480 148 482 148 c 0
 551 148 605 306 615 375 c 0
 618 397 620 418 620 438 c 0
 620 499 606 551 579 594 c 0
 550 638 519 681 472 707 c 0
 451 719 428 725 403 725 c 0
 367 725 339 712 314 698 c 0
 277 677 246 648 219 618 c 0
 163 555 127 465 111 347 c 0
 108 323 106 300 106 278 c 0
 106 213 121 156 151 108 c 0
 180 59 218 14 269 -14 c 0
 292 -26 314 -33 346 -33 c 0
 410 -33 458 -6 510 8 c 1
 517 -39 l 1xdf
  Spiro
    517 -39 v
    473.415 -50.6573 o
    428.584 -57.6713 o
    383 -60 o
    361.984 -59.6304 o
    340.682 -58.3686 o
    319 -56 o
    192.25 -13.25 o
    100 76 o
    66.6933 136.38 o
    46.6533 204.294 o
    40 280 o
    40.6653 304.346 o
    42.6693 329.655 o
    46 356 o
    92.5 533 o
    178 662 o
    239.232 710.998 o
    307.108 740.316 o
    381 750 o
    403.5 749.25 o
    426 747 o
    561.849 694.527 o
    651.099 585.756 o
    683 432 o
    682.63 410.725 o
    681.369 388.941 o
    679 367 o
    646.237 260.743 o
    579.068 157.287 o
    489 111 o
    468.687 113.439 o
    447.645 121.233 o
    426 135 o
    407.126 156.272 o
    395.547 184.068 o
    390 218 v
    366.655 191.322 o
    338.34 167.683 o
    305 151 o
    295.306 148.631 o
    286.028 147.37 o
    277 147 o
    227.226 167.037 o
    196.461 216.985 o
    186 281 o
    186.296 289.991 o
    187.038 299.009 o
    188 308 o
    202.721 372.015 o
    227.289 426.642 o
    262 472 o
    297.704 500.828 o
    335.965 518.827 o
    375 525 o
    402.898 521.71 o
    430.435 511.95 o
    457 496 v
    461 507 v
    535 497 v
    504.473 405.606 o
    476.528 319.061 o
    448 229 o
    444.632 217.489 o
    443.036 210.845 o
    441 200 o
    440.297 196.041 o
    440.037 192.293 o
    440 189 o
    443.992 167.943 o
    456.016 154.398 o
    476 148 o
    482 148 o
    544.87 191.441 o
    591.444 285.582 o
    615 375 o
    617.627 396.645 o
    619.372 417.687 o
    620 438 o
    615.38 495.945 o
    601.611 548.049 o
    579 594 o
    548.847 637.033 o
    514.147 675.961 o
    472 707 o
    439 720.5 o
    403 725 o
    369.513 721.118 o
    340.158 711.21 o
    314 698 o
    278.959 674.618 o
    247.378 647.379 o
    219 618 o
    169.709 546.044 o
    133.637 455.604 o
    111 347 o
    108.373 323.357 o
    106.628 300.311 o
    106 278 o
    110.99 215.763 o
    126.02 158.909 o
    151 108 o
    183.113 60.8597 o
    222.228 19.1473 o
    269 -14 o
    292.051 -24.2508 o
    316.952 -30.7452 o
    346 -33 o
    405.352 -25.495 o
    458.644 -8.83363 o
    510 8 v
    0 0 z
  EndSpiro
441 442 m 1
 430 456 424 475 412 488 c 0
 400 500 388 505 377 505 c 0
 317 505 270 355 263 308 c 2
 256 259 l 2
 255 253 255 248 255 243 c 0
 255 218 263 206 276 189 c 0
 284 178 291 172 300 172 c 0xbf
 306 172 314 176 323 183 c 0
 341 196 391 234 394 256 c 1
 441 442 l 1
  Spiro
    441 442 v
    431.268 457.243 o
    422.398 473.423 o
    412 488 o
    400.049 497.733 o
    388.285 503.263 o
    377 505 o
    322.382 464.442 o
    282.303 379.875 o
    263 308 [
    256 259 ]
    255.297 253.302 o
    255.037 248.032 o
    255 243 o
    257.551 221.685 o
    264.787 204.984 o
    276 189 o
    283.77 179.711 o
    291.564 173.959 o
    300 172 o
    306.622 173.294 o
    314.379 177.042 o
    323 183 o
    348.71 202.79 o
    378.285 230.213 o
    394 256 v
    0 0 z
  EndSpiro
EndSplineSet
Validated: 1
EndChar

StartChar: equal
Encoding: 29 61 58
Width: 580
VWidth: 0
Flags: W
HStem: 250 62<80 500> 410 62<80 500>
LayerCount: 2
Fore
SplineSet
80 410 m 1
 80 472 l 1
 500 472 l 1
 500 410 l 1
 80 410 l 1
80 250 m 1
 80 312 l 1
 500 312 l 1
 500 250 l 1
 80 250 l 1
EndSplineSet
Validated: 1
EndChar

StartChar: bracketleft
Encoding: 59 91 59
Width: 370
VWidth: 0
Flags: W
HStem: -36 40<192 290> 724 40<192 290>
VStem: 80 70<-6 734>
LayerCount: 2
Fore
SplineSet
80 -36 m 5
 80 764 l 5
 290 764 l 5
 290 724 l 5
 150 734 l 5
 150 -6 l 5
 290 4 l 5
 290 -36 l 5
 80 -36 l 5
EndSplineSet
Validated: 1
EndChar

StartChar: bracketright
Encoding: 61 93 60
Width: 370
VWidth: 0
Flags: W
HStem: -36 40<80 178> 724 40<80 178>
VStem: 220 70<-6 734>
LayerCount: 2
Fore
SplineSet
290 -36 m 5
 80 -36 l 5
 80 4 l 5
 220 -6 l 5
 220 734 l 5
 80 724 l 5
 80 764 l 5
 290 764 l 5
 290 -36 l 5
EndSplineSet
Validated: 1
EndChar

StartChar: asciicircum
Encoding: 62 94 61
Width: 316
VWidth: 0
Flags: W
HStem: 750 95
VStem: 39 237
LayerCount: 2
Fore
SplineSet
154 800 m 1
 94 750 l 1
 39 750 l 1
 154 845 l 1
 276 750 l 1
 221 750 l 1
 154 800 l 1
EndSplineSet
Validated: 1
EndChar

StartChar: braceleft
Encoding: 91 123 62
Width: 400
VWidth: 0
Flags: W
HStem: -40 44<173.979 289.98> 328 64<80 128.712> 721 39<182.892 289.985>
VStem: 100 50<17.414 128.07 591.93 703.175> 166 54<201.597 311.395 408.605 518.403>
LayerCount: 2
Fore
SplineSet
80 392 m 1
 100 392 166 394 166 454 c 0
 166 522 100 547 100 648 c 0
 100 757 272 760 320 760 c 1
 290 718 l 1
 290 718 270 721 246 721 c 0
 205 721 150 712 150 664 c 0
 150 587 220 552 220 456 c 0
 220 386 130 360 130 360 c 1
 130 360 220 334 220 264 c 0
 220 168 150 133 150 56 c 0
 150 13 193 4 231 4 c 0
 262 4 290 10 290 10 c 1
 320 -40 l 1
 272 -40 100 -37 100 72 c 0
 100 173 166 198 166 266 c 0
 166 326 100 328 80 328 c 1
 80 392 l 1
EndSplineSet
Validated: 1
EndChar

StartChar: braceright
Encoding: 93 125 63
Width: 400
VWidth: 0
Flags: W
HStem: -40 44<110.02 226.021> 328 64<271.288 320> 721 39<110.015 217.108>
VStem: 180 54<201.597 311.395 408.605 518.403> 250 50<17.414 128.07 591.93 703.175>
LayerCount: 2
Fore
SplineSet
320 392 m 1
 320 328 l 1
 300 328 234 326 234 266 c 0
 234 198 300 173 300 72 c 0
 300 -37 128 -40 80 -40 c 1
 110 10 l 1
 110 10 138 4 169 4 c 0
 207 4 250 13 250 56 c 0
 250 133 180 168 180 264 c 0
 180 334 270 360 270 360 c 1
 270 360 180 386 180 456 c 0
 180 552 250 587 250 664 c 0
 250 712 195 721 154 721 c 0
 130 721 110 718 110 718 c 1
 80 760 l 1
 128 760 300 757 300 648 c 0
 300 547 234 522 234 454 c 0
 234 394 300 392 320 392 c 1
EndSplineSet
Validated: 1
EndChar

StartChar: bar
Encoding: 92 124 64
Width: 240
VWidth: 0
Flags: W
VStem: 80 80<-30 750>
LayerCount: 2
Fore
SplineSet
156 750 m 1
 160 -30 l 1
 80 -30 l 1
 84 750 l 1
 156 750 l 1
EndSplineSet
Validated: 1
EndChar

StartChar: divide
Encoding: 180 247 65
Width: 500
VWidth: 0
Flags: W
HStem: 166 84<213.824 286.176> 328 62<40 460> 460 84<213.824 286.176>
VStem: 208 84<171.824 244.176 465.824 538.176>
LayerCount: 2
Fore
SplineSet
40 328 m 1
 40 390 l 1
 460 390 l 1
 460 328 l 1
 40 328 l 1
EndSplineSet
Refer: 37 46 N 1 0 0 1 168 470 2
Refer: 37 46 N 1 0 0 1 168 176 2
Validated: 1
EndChar

StartChar: guillemotleft
Encoding: 105 171 66
Width: 515
VWidth: 0
Flags: W
LayerCount: 2
Fore
SplineSet
272 360 m 1
 475 148 l 1
 460 135 448 128 448 128 c 1
 448 128 262 291 231 314 c 1
 231 402 l 1
 262 426 427 598 441 598 c 1
 449 593 461 584 468 578 c 1
 272 360 l 1
81 360 m 1
 284 148 l 1
 269 135 257 128 257 128 c 1
 257 128 71 291 40 314 c 1
 40 402 l 1
 71 426 236 598 250 598 c 1
 258 593 270 584 277 578 c 1
 81 360 l 1
EndSplineSet
Validated: 1
EndChar

StartChar: guillemotright
Encoding: 120 187 67
Width: 515
VWidth: 0
Flags: W
LayerCount: 2
Fore
SplineSet
243 360 m 1
 47 578 l 1
 54 584 66 593 74 598 c 1
 88 598 253 426 284 402 c 1
 284 314 l 1
 253 291 67 128 67 128 c 1
 67 128 55 135 40 148 c 1
 243 360 l 1
434 360 m 1
 238 578 l 1
 245 584 257 593 265 598 c 1
 279 598 444 426 475 402 c 1
 475 314 l 1
 444 291 258 128 258 128 c 1
 258 128 246 135 231 148 c 1
 434 360 l 1
EndSplineSet
Validated: 1
EndChar

StartChar: asciitilde
Encoding: 94 126 69
Width: 605
VWidth: 0
Flags: W
HStem: 289 55<347.463 461.614> 384 56<147.275 252.444>
VStem: 40 56<280 330.743> 507 58<389.736 442>
LayerCount: 2
Fore
SplineSet
565 442 m 1
 565 439 565 436 565 434 c 0
 565 341 515 289 421 289 c 2
 369 289 327 315 292 336 c 0
 265 353 230 384 195 384 c 0
 149 384 102 321 96 280 c 1
 40 280 l 1
 40 284 40 288 40 292 c 0
 40 379 94 440 183 440 c 0
 234 440 275 413 308 392 c 0
 336 374 371 344 408 344 c 0
 455 344 505 397 507 442 c 1
 565 442 l 1
EndSplineSet
Validated: 1
EndChar

StartChar: sterling
Encoding: 97 163 70
Width: 533
VWidth: 0
Flags: W
HStem: 0 58<396.346 493> 711 33<249.29 387.643>
VStem: 117 68<429.639 651.672> 170 72<141.55 343.65>
LayerCount: 2
Fore
SplineSet
493 58 m 1xd0
 493 0 l 1
 73 0 l 1
 73 50 l 1
 73 50 170 98 170 253 c 0xd0
 170 285 166 322 157 363 c 1
 40 393 l 1
 50 432 l 1
 144 408 l 1
 129 468 117 515 117 557 c 0
 117 726 262 744 343 744 c 0
 441 744 470 723 470 723 c 1
 445 658 l 1
 445 658 389 702 351 708 c 0
 339 710 328 711 318 711 c 0
 231 711 185 653 185 556 c 0xe0
 185 509 201 445 217 389 c 1
 387 345 l 1
 377 307 l 1
 229 345 l 1
 237 307 242 274 242 243 c 0
 242 153 203 89 123 30 c 1
 134 32 l 1
 493 58 l 1xd0
EndSplineSet
Validated: 1
EndChar

StartChar: cent
Encoding: 96 162 71
Width: 477
VWidth: 0
Flags: W
HStem: 1 33<224.417 333.264> 518 30<219.727 271>
VStem: 40 84<149.576 395.585>
LayerCount: 2
Fore
SplineSet
312 670 m 1
 380 670 l 1
 346 543 l 1
 380 538 414 529 437 520 c 1
 412 451 l 1
 383 463 359 482 333 497 c 1
 214 58 l 2
 216 57 217 56 219 54 c 0
 236 41 257 34 282 34 c 0
 308 34 333 50 352 61 c 0
 374 75 397 91 423 101 c 1
 437 34 l 1
 399 13 344 1 290 1 c 0
 259 1 229 4 202 13 c 1
 185 -50 l 1
 119 -50 l 1
 144 43 l 1
 130 53 117 65 108 75 c 0
 63 124 40 191 40 274 c 0
 40 429 130 547 279 548 c 1
 312 670 l 1
164 116 m 1
 271 518 l 1
 221 514 192 488 166 457 c 0
 133 416 124 345 124 273 c 0
 124 206 134 160 164 116 c 1
EndSplineSet
Validated: 1
EndChar

StartChar: currency
Encoding: 98 164 72
Width: 576
VWidth: 0
Flags: W
HStem: 155 24<238.328 339.185> 548 26<230.805 337.985>
VStem: 40 99<272.657 451.393> 433 103<270.72 450.837>
LayerCount: 2
Fore
SplineSet
424 186 m 1
 382 165 333 155 286 155 c 0
 237 155 189 165 151 185 c 1
 88 122 l 1
 46 164 l 1
 102 220 l 1
 60 259 40 311 40 362 c 0
 40 415 61 467 103 507 c 1
 46 564 l 1
 88 606 l 1
 153 542 l 1
 163 547 179 554 189 557 c 0
 220 569 253 574 287 574 c 0
 334 574 382 563 423 541 c 1
 488 606 l 1
 530 564 l 1
 472 506 l 1
 511 470 536 421 536 359 c 0
 536 300 512 254 474 220 c 1
 530 164 l 1
 488 122 l 1
 424 186 l 1
384 225 m 0
 399 242 412 265 422 291 c 0
 430 311 433 333 433 356 c 0
 433 387 427 419 414 448 c 0
 393 499 348 548 284 548 c 0
 221 548 178 501 157 452 c 0
 145 424 139 394 139 364 c 0
 139 333 146 302 158 276 c 0
 167 256 179 239 192 225 c 0
 220 194 255 179 289 179 c 0
 323 179 357 194 384 225 c 0
EndSplineSet
Validated: 1
EndChar

StartChar: yen
Encoding: 99 165 73
Width: 532
VWidth: 0
Flags: W
HStem: 0 21G<230 300> 0 21G<230 300> 242 48<40 237 300 492> 472 48<40 143 394 492> 700 20G<40 128.727 401.152 492> 700 20G<40 128.727 401.152 492>
VStem: 230 70<0 242> 237 63<103.714 242 290 330>
LayerCount: 2
Fore
SplineSet
143 520 m 1xb9
 40 720 l 1
 120 720 l 1
 264 390 l 1
 410 720 l 1
 492 720 l 1
 394 520 l 1
 492 520 l 1
 492 472 l 1
 370 472 l 1
 300 330 l 1
 300 290 l 1xb9
 492 290 l 1
 492 242 l 1
 300 242 l 1
 300 0 l 1
 230 0 l 1xba
 237 242 l 1
 40 242 l 1
 40 290 l 1
 239 290 l 1
 240 330 l 1
 167 472 l 1
 40 472 l 1
 40 520 l 1
 143 520 l 1xb9
EndSplineSet
Validated: 1
EndChar

StartChar: brokenbar
Encoding: 100 166 74
Width: 160
VWidth: 0
Flags: W
HStem: 710 20G<43.9213 116.079> 710 20G<43.9213 116.079>
VStem: 41 78<-10 258 476 730>
LayerCount: 2
Fore
SplineSet
117 476 m 1xa0
 43 476 l 1
 44 730 l 1
 116 730 l 1
 117 476 l 1xa0
41 258 m 1
 119 258 l 1
 120 -10 l 1
 40 -10 l 1
 41 258 l 1
EndSplineSet
Validated: 1
EndChar

StartChar: section
Encoding: 101 167 75
Width: 412
VWidth: 0
Flags: W
HStem: -112 31<134.379 239.904> 731 21G<305.5 328.636> 731 21G<305.5 328.636> 775 29<174.565 272.651>
VStem: 40 68<309.301 437.788 595.755 724.007> 306 66<-15.3264 129.438 268.402 416.155>
LayerCount: 2
Fore
SplineSet
142 504 m 1xdc
 91 530 40 578 40 644 c 0
 40 754 131 804 228 804 c 0
 268 804 307 799 342 786 c 1
 321 731 l 1
 290 748 263 775 226 775 c 0
 192 775 146 750 129 724 c 0
 115 703 108 673 108 648 c 0
 108 547 287 536 343 451 c 0
 362 422 372 395 372 361 c 0
 372 291 342 240 298 209 c 1
 338 182 372 134 372 76 c 0
 372 -46 280 -112 181 -112 c 0
 135 -112 89 -104 49 -80 c 1
 66 -23 l 1
 94 -42 121 -61 152 -74 c 0
 163 -79 175 -81 186 -81 c 0
 218 -81 249 -65 270 -43 c 0
 296 -18 306 30 306 66 c 0
 306 176 166 191 100 244 c 0
 66 272 40 312 40 358 c 0
 40 435 84 482 142 504 c 1xdc
108 363 m 0
 108 295 189 267 258 231 c 1
 292 257 304 307 306 351 c 0
 306 422 248 454 189 482 c 1
 139 462 108 425 108 363 c 0
EndSplineSet
Validated: 1
EndChar

StartChar: dieresis
Encoding: 102 168 76
Width: 254
VWidth: 0
Flags: W
HStem: 750 63<41.5505 101.261 152.739 212.45>
VStem: 40 63<751.739 811.45> 151 63<751.739 811.45>
LayerCount: 2
Fore
SplineSet
72 750 m 0
 55 750 40 764 40 781 c 0
 40 800 53 813 72 813 c 0
 89 813 103 798 103 781 c 0
 103 765 88 750 72 750 c 0
182 750 m 0
 166 750 151 765 151 781 c 0
 151 798 165 813 182 813 c 0
 201 813 214 800 214 781 c 0
 214 764 199 750 182 750 c 0
EndSplineSet
Validated: 1
EndChar

StartChar: plusminus
Encoding: 111 177 77
Width: 500
VWidth: 0
Flags: W
HStem: 126 58<67 221 285 440> 360 61<40 221 285 460>
VStem: 221 64<184 360 421 604>
LayerCount: 2
Fore
SplineSet
285 421 m 1
 460 421 l 1
 460 360 l 1
 285 360 l 1
 285 184 l 1
 440 184 l 1
 440 126 l 1
 67 126 l 1
 67 184 l 1
 221 184 l 1
 221 360 l 1
 40 360 l 1
 40 421 l 1
 221 421 l 1
 221 604 l 1
 285 604 l 1
 285 421 l 1
EndSplineSet
Validated: 1
EndChar

StartChar: grave
Encoding: 64 96 79
Width: 281
VWidth: 0
Flags: W
HStem: 750 44<40 71.9773>
VStem: 40 201
LayerCount: 2
Fore
SplineSet
40 794 m 1
 241 750 l 1
 40 750 l 1
 40 794 l 1
EndSplineSet
Validated: 1
EndChar

StartChar: periodcentered
Encoding: 116 183 80
Width: 164
VWidth: 0
Flags: W
HStem: 318 84<45.8241 118.176>
VStem: 40 84<323.824 396.176>
LayerCount: 2
Fore
SplineSet
82 318 m 0
 60 318 40 338 40 360 c 0
 40 382 60 402 82 402 c 0
 104 402 124 382 124 360 c 0
 124 338 104 318 82 318 c 0
EndSplineSet
Validated: 1
EndChar

StartChar: cedilla
Encoding: 117 184 81
Width: 337
VWidth: 0
Flags: W
HStem: -166 50<41.466 220.694> -44 66<121.288 148.945>
VStem: 40 257
LayerCount: 2
Fore
SplineSet
157 14 m 1
 150 -2 l 1
 182 -12 297 -29 297 -70 c 0
 297 -137 173 -166 89 -166 c 0
 70 -166 53 -165 40 -162 c 1
 41 -106 l 1
 69 -111 107 -116 145 -116 c 0
 200 -116 254 -105 277 -66 c 1
 242 -54 126 -45 90 -44 c 1
 125 22 l 1
 157 14 l 1
EndSplineSet
Validated: 1
EndChar

StartChar: copyright
Encoding: 103 169 82
Width: 750
VWidth: 0
Flags: W
HStem: -9 30<282.699 467.468> 121 19<356.649 417.348> 578 19<350.659 409.709> 697 32<274.599 476.443>
VStem: 6 31<258.638 455.96> 213 52<232.424 488.309> 713 31<258.638 450.734>
LayerCount: 2
Fore
SplineSet
375 630 m 0
 225 630 105 509 105 359 c 0
 105 210 225 89 375 89 c 0
 525 89 645 210 645 359 c 0
 645 509 525 630 375 630 c 0
376 655 m 0
 409 655 460 645 490 632 c 0
 589 590 670 468 670 360 c 0
 670 197 538 65 375 65 c 0
 213 65 80 197 80 360 c 0
 80 523 213 655 376 655 c 0
469 198 m 1
 442 177 410 169 376 169 c 0
 274 169 246 258 245 358 c 0
 245 361 245 362 245 365 c 0
 245 454 278 550 373 550 c 0
 406 550 440 543 465 524 c 1
 452 491 l 1
 423 510 405 534 377 534 c 0
 360 534 341 519 323 493 c 0
 293 454 287 413 287 359 c 0
 288 301 298 235 345 200 c 0
 355 194 369 184 382 184 c 0
 389 184 399 186 405 190 c 0
 425 199 440 220 459 231 c 1
 469 198 l 1
EndSplineSet
Validated: 1
EndChar

StartChar: registered
Encoding: 108 174 83
Width: 750
VWidth: 0
Flags: W
HStem: -8 30<282.699 467.468> 360 19<310 374> 574 17<310 420.778> 698 32<274.599 476.443>
VStem: 6 31<259.638 456.96> 265 45<129 360 379 571> 470 42<408.202 545.231> 713 31<259.638 451.734>
LayerCount: 2
Fore
SplineSet
375 631 m 0
 225 631 105 510 105 360 c 0
 105 211 225 90 375 90 c 0
 525 90 645 211 645 360 c 0
 645 510 525 631 375 631 c 0
376 656 m 0
 409 656 460 646 490 633 c 0
 589 591 670 469 670 361 c 0
 670 198 538 66 375 66 c 0
 213 66 80 198 80 361 c 0
 80 524 213 656 376 656 c 0
485 451 m 0
 485 396 457 368 405 362 c 1
 487 175 l 1
 441 175 l 1
 374 360 l 1
 323 360 l 1
 328 175 l 1
 287 175 l 1
 287 545 l 1
 377 545 l 2
 443 545 485 518 485 451 c 0
373 375 m 2
 425 375 451 402 451 452 c 0
 451 503 425 531 375 531 c 1
 323 529 l 1
 323 375 l 1
 373 375 l 2
EndSplineSet
Validated: 1
EndChar

StartChar: logicalnot
Encoding: 106 172 84
Width: 480
VWidth: 0
Flags: W
HStem: 360 58<40 375>
VStem: 375 65<265 360>
LayerCount: 2
Fore
SplineSet
375 360 m 1
 40 360 l 1
 40 418 l 1
 173 418 307 418 440 418 c 1
 440 367 440 316 440 265 c 1
 375 265 l 1
 375 360 l 1
EndSplineSet
Validated: 1
EndChar

StartChar: degree
Encoding: 110 176 86
Width: 279
VWidth: 0
Flags: W
HStem: 534 10<121.033 158.875> 692 10<117.641 157.805>
VStem: 40 40<567.178 668.39> 197 42<565.1 668.948>
LayerCount: 2
Fore
SplineSet
239 616 m 0
 239 562 187 534 138 534 c 0
 79 534 40 574 40 617 c 0
 40 662 80 702 139 702 c 0
 188 702 239 671 239 616 c 0
138 692 m 0
 101 692 80 653 80 618 c 0
 80 575 112 544 140 544 c 0
 167 544 197 574 197 616 c 0
 197 652 174 692 138 692 c 0
EndSplineSet
Validated: 1
EndChar

StartChar: ordmasculine
Encoding: 119 186 87
Width: 279
VWidth: 0
Flags: W
HStem: 534 10<121.033 158.875> 692 10<117.641 157.805>
VStem: 40 40<567.178 668.39> 197 42<565.1 668.948>
LayerCount: 2
Fore
SplineSet
239 616 m 0
 239 562 187 534 138 534 c 0
 79 534 40 574 40 617 c 0
 40 662 80 702 139 702 c 0
 188 702 239 671 239 616 c 0
138 692 m 0
 101 692 80 653 80 618 c 0
 80 575 112 544 140 544 c 0
 167 544 197 574 197 616 c 0
 197 652 174 692 138 692 c 0
EndSplineSet
Validated: 1
EndChar

StartChar: exclamdown
Encoding: 95 161 88
Width: 169
VWidth: 0
Flags: W
HStem: 646 84<45.824 118.176>
VStem: 40 84<651.824 724.176> 47 82<0 237.031>
LayerCount: 2
Fore
SplineSet
101 500 m 1xa0
 110 330 119 160 129 -10 c 1
 47 0 l 1
 42 185 l 1
 59 500 l 1
 101 500 l 1xa0
EndSplineSet
Refer: 37 46 N -1 0 0 -1 164 720 2
Validated: 1
EndChar

StartChar: questiondown
Encoding: 124 191 89
Width: 439
VWidth: 0
Flags: W
HStem: -10 45<156.833 308.299> 648 84<218.824 291.176>
VStem: 40 66<86.2309 246.347> 213 84<653.824 726.176> 236 41<387.739 502> 239 60<368 500.337>
LayerCount: 2
Fore
SplineSet
106 163 m 0xe4
 106 78 158 35 244 35 c 0
 261 35 281 41 303 54 c 0
 325 66 349 78 375 91 c 1
 399 31 l 1
 338 4 285 -10 239 -10 c 0
 117 -10 40 41 40 160 c 0
 40 253 94 319 157 350 c 0
 182 362 209 368 239 368 c 1xe4
 236 502 l 1
 277 502 l 1xe8
 288 467 299 401 299 350 c 0
 299 348 299 346 299 344 c 1
 257 335 233 327 199 312 c 0
 143 287 106 232 106 163 c 0xe4
EndSplineSet
Refer: 37 46 N -1 0 0 -1 337 722 2
Validated: 1
EndChar

StartChar: paragraph
Encoding: 115 182 90
Width: 615
VWidth: 0
Flags: W
HStem: 760 40<325 455 505 545.833>
VStem: 40 285<499.776 680.535> 265 60<-60 248> 275 50<72 380> 445 60<-60 514> 455 50<186 760>
LayerCount: 2
Fore
SplineSet
40 583 m 0xc0
 40 722 146 800 289 800 c 2
 575 800 l 1
 575 748 l 1
 505 760 l 1xc4
 505 -60 l 1
 445 -60 l 1x88
 455 760 l 1
 325 760 l 1x94
 325 -60 l 1
 265 -60 l 1xa0
 275 380 l 1x90
 221 380 165 400 115 439 c 0
 65 478 40 526 40 583 c 0xc0
EndSplineSet
Validated: 1
EndChar

StartChar: quotesingle
Encoding: 7 39 91
Width: 143
VWidth: 0
Flags: W
HStem: 550 170<43 76>
VStem: 40 36<550 594.074> 43 60<675.926 720>
LayerCount: 2
Fore
SplineSet
40 550 m 1xc0
 40 616 l 1xc0
 43 720 l 1
 103 720 l 1xa0
 76 550 l 1
 40 550 l 1xc0
EndSplineSet
Validated: 1
EndChar

StartChar: tilde
Encoding: 430 732 93
Width: 310
VWidth: 0
Flags: W
HStem: 755 31<168.746 217.541> 809 32<91.3967 141.076>
VStem: 40 42<750 807.655> 227 43<787.412 842>
LayerCount: 2
Fore
SplineSet
270 842 m 1
 270 841 270 839 270 838 c 0
 270 790 253 755 207 755 c 1
 162 755 145 809 108 809 c 0
 88 809 84 768 82 750 c 1
 40 750 l 1
 40 752 40 754 40 756 c 0
 40 801 61 841 103 841 c 0
 149 841 162 786 201 786 c 0
 219 786 226 823 227 842 c 1
 270 842 l 1
EndSplineSet
Validated: 1
EndChar

StartChar: circumflex
Encoding: 421 710 94
Width: 317
VWidth: 0
Flags: W
HStem: 750 95
VStem: 40 237
LayerCount: 2
Fore
SplineSet
155 800 m 1
 95 750 l 1
 40 750 l 1
 155 845 l 1
 277 750 l 1
 222 750 l 1
 155 800 l 1
EndSplineSet
Validated: 1
EndChar

StartChar: caron
Encoding: 422 711 95
Width: 316
VWidth: 0
Flags: W
HStem: 750 95
VStem: 39 237
LayerCount: 2
Fore
SplineSet
161 795 m 1
 221 845 l 1
 276 845 l 1
 161 750 l 1
 39 845 l 1
 94 845 l 1
 161 795 l 1
EndSplineSet
Validated: 1
EndChar

StartChar: uni02BC
Encoding: 417 700 96
Width: 179
VWidth: 0
Flags: W
HStem: 653 97<49.5823 86>
VStem: 86 53<620.75 660.488>
LayerCount: 2
Fore
SplineSet
85 750 m 0
 115 750 139 720 139 689 c 0
 139 638 111 598 54 569 c 1
 44 587 l 1
 68 599 86 622 86 653 c 1
 62 656 40 676 40 703 c 0
 40 729 58 750 85 750 c 0
EndSplineSet
Validated: 1
EndChar

StartChar: uni02BB
Encoding: 416 699 97
Width: 179
VWidth: 0
Flags: W
HStem: 569 97<93 129.418>
VStem: 40 53<658.512 698.25>
LayerCount: 2
Fore
SplineSet
94 569 m 0
 64 569 40 599 40 630 c 0
 40 681 68 721 125 750 c 1
 135 732 l 1
 111 720 93 697 93 666 c 1
 117 663 139 643 139 616 c 0
 139 590 121 569 94 569 c 0
EndSplineSet
Validated: 1
EndChar

StartChar: uni02BD
Encoding: 418 701 98
Width: 179
VWidth: 0
Flags: W
HStem: 653 97<93 129.418>
VStem: 40 53<620.75 660.488>
LayerCount: 2
Fore
SplineSet
94 750 m 0
 121 750 139 729 139 703 c 0
 139 676 117 656 93 653 c 1
 93 622 111 599 135 587 c 1
 125 569 l 1
 68 598 40 638 40 689 c 0
 40 720 64 750 94 750 c 0
EndSplineSet
Validated: 1
EndChar

StartChar: uni02B9
Encoding: 414 697 100
Width: 143
VWidth: 0
Flags: W
HStem: 750 170<43 76>
VStem: 40 36<750 794.074> 43 60<875.926 920>
LayerCount: 2
Fore
SplineSet
40 750 m 1xc0
 40 816 l 1xc0
 43 920 l 1
 103 920 l 1xa0
 76 750 l 1
 40 750 l 1xc0
EndSplineSet
Validated: 1
EndChar

StartChar: dotaccent
Encoding: 427 729 101
Width: 170
VWidth: 0
Flags: W
HStem: 750 90<47.301 122.699>
VStem: 40 90<757.301 832.699>
LayerCount: 2
Fore
SplineSet
85 750 m 0
 61 750 40 771 40 795 c 0
 40 819 61 840 85 840 c 0
 109 840 130 819 130 795 c 0
 130 771 109 750 85 750 c 0
EndSplineSet
Validated: 1
EndChar

StartChar: uni02CA
Encoding: 424 714 102
Width: 281
VWidth: 0
Flags: W
HStem: 750 44<209.023 241> 750 0<40 71.9773>
LayerCount: 2
Fore
SplineSet
241 794 m 1x80
 241 750 l 1x80
 40 750 l 1x40
 241 794 l 1x80
EndSplineSet
Validated: 1
EndChar

StartChar: uni02CB
Encoding: 425 715 103
Width: 281
VWidth: 0
Flags: W
HStem: 750 44<40 71.9773>
VStem: 40 201
LayerCount: 2
Fore
SplineSet
40 794 m 1
 241 750 l 1
 40 750 l 1
 40 794 l 1
EndSplineSet
Validated: 1
EndChar

StartChar: breve
Encoding: 426 728 105
Width: 275
VWidth: 0
Flags: W
HStem: 750 34<68.7259 206.018>
VStem: 40 22<798.234 813> 213 22<798.234 813>
LayerCount: 2
Fore
SplineSet
235 813 m 1
 235 771 186 750 138 750 c 0
 89 750 40 771 40 813 c 1
 62 813 l 1
 62 794 100 784 138 784 c 0
 176 784 213 794 213 813 c 1
 235 813 l 1
EndSplineSet
Validated: 1
EndChar

StartChar: ring
Encoding: 428 730 106
Width: 223
VWidth: 0
Flags: W
HStem: 750 7<98.173 125.337> 857 7<95.2245 124.403>
VStem: 40 29<772.845 841.282> 153 30<770.97 841.571>
LayerCount: 2
Fore
SplineSet
183 806 m 0
 183 769 146 750 110 750 c 0
 68 750 40 778 40 807 c 0
 40 837 69 864 111 864 c 0
 146 864 183 843 183 806 c 0
110 857 m 0
 84 857 69 831 69 807 c 0
 69 778 92 757 112 757 c 0
 131 757 153 778 153 806 c 0
 153 830 136 857 110 857 c 0
EndSplineSet
Validated: 1
EndChar

StartChar: ogonek
Encoding: 429 731 107
Width: 337
VWidth: 0
Flags: W
HStem: -166 50<116.306 295.534> -44 66<188.055 215.712>
VStem: 40 256
LayerCount: 2
Fore
SplineSet
180 14 m 1
 212 22 l 1
 247 -44 l 1
 211 -45 95 -54 60 -66 c 1
 83 -105 137 -116 192 -116 c 0
 230 -116 268 -111 296 -106 c 1
 297 -162 l 1
 284 -165 267 -166 248 -166 c 0
 164 -166 40 -137 40 -70 c 0
 40 -29 155 -12 187 -2 c 1
 180 14 l 1
EndSplineSet
Validated: 1
EndChar

StartChar: hungarumlaut
Encoding: 431 733 108
Width: 346
VWidth: 0
Flags: W
HStem: 751 167
VStem: 40 266
LayerCount: 2
Fore
SplineSet
306 847 m 1
 160 751 l 1
 271 918 l 1
 306 847 l 1
185 847 m 1
 40 751 l 1
 151 918 l 1
 185 847 l 1
EndSplineSet
Validated: 1
EndChar

StartChar: uni02BE
Encoding: 419 702 109
Width: 153
VWidth: 0
Flags: W
HStem: 750 7<41 54.8296> 857 7<41 54.1426>
VStem: 82 31<770.97 842.015>
LayerCount: 2
Fore
SplineSet
41 757 m 0
 61 757 82 778 82 806 c 0
 82 830 66 857 40 857 c 0
 41 864 l 0
 76 864 113 843 113 806 c 0
 113 769 75 750 40 750 c 0
 41 757 l 0
EndSplineSet
Validated: 1
EndChar

StartChar: uni02BF
Encoding: 420 703 110
Width: 152
VWidth: 0
Flags: W
HStem: 750 7<98.5682 110> 857 7<95.8906 110>
VStem: 40 29<772.845 841.282>
LayerCount: 2
Fore
SplineSet
110 750 m 0
 68 750 40 778 40 807 c 0
 40 837 69 864 111 864 c 0
 110 857 l 0
 84 857 69 831 69 807 c 0
 69 778 92 757 112 757 c 0
 110 750 l 0
EndSplineSet
Validated: 1
EndChar

StartChar: uni02EE
Encoding: 432 750 111
Width: 359
VWidth: 0
Flags: W
HStem: 653 97<49.5823 86 219.582 256>
VStem: 86 53<620.75 660.488> 256 53<620.75 660.488>
LayerCount: 2
Fore
SplineSet
255 750 m 0
 285 750 309 720 309 689 c 0
 309 638 281 598 224 569 c 1
 214 587 l 1
 238 599 256 622 256 653 c 1
 232 656 210 676 210 703 c 0
 210 729 228 750 255 750 c 0
85 750 m 0
 115 750 139 720 139 689 c 0
 139 638 111 598 54 569 c 1
 44 587 l 1
 68 599 86 622 86 653 c 1
 62 656 40 676 40 703 c 0
 40 729 58 750 85 750 c 0
EndSplineSet
Validated: 1
EndChar

StartChar: quoteleft
Encoding: 437 8216 112
Width: 179
VWidth: 0
Flags: W
HStem: 569 97<93 129.418>
VStem: 40 53<658.512 698.25>
LayerCount: 2
Fore
SplineSet
94 569 m 0
 64 569 40 599 40 630 c 0
 40 681 68 721 125 750 c 1
 135 732 l 1
 111 720 93 697 93 666 c 1
 117 663 139 643 139 616 c 0
 139 590 121 569 94 569 c 0
EndSplineSet
Validated: 1
EndChar

StartChar: quoteright
Encoding: 438 8217 113
Width: 179
VWidth: 0
Flags: W
HStem: 653 97<49.5823 86>
VStem: 86 53<620.75 660.488>
LayerCount: 2
Fore
SplineSet
85 750 m 0
 115 750 139 720 139 689 c 0
 139 638 111 598 54 569 c 1
 44 587 l 1
 68 599 86 622 86 653 c 1
 62 656 40 676 40 703 c 0
 40 729 58 750 85 750 c 0
EndSplineSet
Validated: 1
EndChar

StartChar: E.min
Encoding: 463 -1 114
Width: 320
VWidth: 0
Flags: W
HStem: 0 30<124 280> 352 30<120 220> 580 30<120 276>
VStem: 40 80<30 352 382 580>
LayerCount: 2
Fore
SplineSet
280 0 m 1
 40 0 l 1
 40 610 l 1
 276 610 l 1
 276 574 l 1
 120 580 l 1
 120 382 l 1
 220 384 l 1
 220 350 l 1
 120 352 l 1
 124 30 l 1
 280 34 l 1
 280 0 l 1
EndSplineSet
Validated: 1
EndChar

StartChar: Ccedilla.min
Encoding: 464 -1 115
Width: 485
VWidth: 0
Flags: W
HStem: -10 46<187.841 295.396> 169 34<259.068 337.11> 700 30<223.021 327.767>
VStem: 40 84<324.046 576.269>
LayerCount: 2
Fore
SplineSet
285 730 m 0
 339 730 405 717 445 702 c 1
 419 631 l 1
 394 642 371 658 349 672 c 0
 332 683 308 700 286 700 c 0
 258 700 235 694 217 682 c 0
 189 664 161 637 147 600 c 0
 132 558 124 506 124 453 c 0
 124 423 126 392 132 363 c 0
 142 312 185 253 222 224 c 0
 239 210 260 203 286 203 c 0
 296 203 308 206 320 211 c 0
 359 228 390 257 431 271 c 1
 445 203 l 1
 409 183 340 169 285 169 c 0
 276 169 268 169 260 170 c 1
 257 158 l 1
 291 150 322 136 342 113 c 0
 348 106 350 98 350 89 c 0
 350 26 296 -10 230 -10 c 0
 214 -10 202 -8 187 -6 c 1
 187 44 l 1
 208 41 224 36 244 36 c 0
 265 36 277 41 291 53 c 0
 301 61 312 74 322 93 c 1
 290 104 260 115 219 115 c 1
 238 174 l 1
 203 181 172 195 146 214 c 0
 78 262 40 341 40 450 c 0
 40 613 131 730 285 730 c 0
EndSplineSet
Validated: 1
EndChar

StartChar: A.min
Encoding: 465 -1 116
Width: 408
VWidth: 0
Flags: W
HStem: 0 21G<30 121.333 286.667 378> 0 21G<30 121.333 286.667 378> 144 46<142 266>
LayerCount: 2
Fore
SplineSet
378 0 m 1xa0
 290 0 l 1
 266 144 l 1
 142 144 l 1
 118 0 l 1
 30 0 l 1
 168 611 l 1
 240 611 l 1
 378 0 l 1xa0
266 190 m 1
 204 517 l 1
 142 190 l 1
 266 190 l 1
EndSplineSet
Validated: 1
EndChar

StartChar: O.min
Encoding: 466 -1 117
Width: 557
VWidth: 0
Flags: W
HStem: 160 26<232.083 326.867> 555 25<223.725 324.445>
VStem: 30 99<282.169 454.057> 423 104<280.642 456.71>
LayerCount: 2
Fore
SplineSet
527 365 m 0
 527 231 398 160 274 160 c 0
 127 160 30 260 30 368 c 0
 30 479 130 580 277 580 c 0
 401 580 527 503 527 365 c 0
274 555 m 0
 183 555 129 458 129 369 c 0
 129 263 210 186 280 186 c 0
 347 186 423 259 423 364 c 0
 423 455 366 555 274 555 c 0
EndSplineSet
Validated: 1
EndChar

StartChar: OE
Encoding: 271 338 118
Width: 738
VWidth: 0
Flags: W
HStem: 0 30<542 698> 140 26<236.726 341.042> 352 30<538 638> 535 25<232.265 335.637> 690 30<538 694>
VStem: 40 99<260.662 436.539> 433 105<253.786 352 382 440.537> 458 80<30 193 504 690>
LayerCount: 2
Fore
SplineSet
284 535 m 0xfe
 193 535 139 438 139 349 c 0
 139 325 143 302 151 281 c 0
 180 205 235 166 289 166 c 0
 342 166 394 202 422 277 c 0
 430 297 433 320 433 344 c 0
 433 435 376 535 284 535 c 0xfe
698 0 m 1
 458 0 l 1
 458 193 l 1
 410 158 347 140 284 140 c 0
 251 140 219 145 190 155 c 0
 90 188 40 268 40 349 c 0
 40 430 91 511 190 544 c 0
 221 555 253 560 286 560 c 0
 349 560 411 541 458 504 c 1
 458 720 l 1
 694 720 l 1
 694 684 l 1
 538 690 l 1xfd
 538 382 l 1
 638 384 l 1
 638 350 l 1
 538 352 l 1
 542 30 l 1
 698 34 l 1
 698 0 l 1
EndSplineSet
Validated: 1
EndChar

StartChar: uni00B2
Encoding: 112 178 120
Width: 319
VWidth: 0
Flags: W
HStem: 295 43<104.875 279> 295 35<80 254.125> 702 28<101.226 189.169>
VStem: 231 42<540.677 669.732>
LayerCount: 2
Fore
SplineSet
47 706 m 1x70
 73 717 109 730 143 730 c 0
 203 730 246 701 263 660 c 0
 270 645 273 629 273 611 c 0
 273 539 227 480 187 440 c 0
 153 405 115 368 80 330 c 1x70
 279 338 l 1
 279 295 l 1xb0
 40 295 l 1
 40 331 l 1
 98 395 139 437 184 499 c 0
 203 524 231 570 231 609 c 0
 231 665 193 702 135 702 c 0
 122 702 110 693 99 687 c 0
 85 678 72 670 52 663 c 1
 47 706 l 1x70
EndSplineSet
Validated: 1
EndChar

StartChar: uni00B3
Encoding: 113 179 121
Width: 354
VWidth: 0
Flags: W
HStem: 295 21<112.76 200.085> 522 22<147 186.969> 706 24<137.594 207.455>
VStem: 239 53<568.841 684.792> 264 50<358.33 471.127>
LayerCount: 2
Fore
SplineSet
314 420 m 0xe8
 314 348 238 295 153 295 c 0
 112 295 73 307 40 329 c 1
 55 369 l 1
 80 351 110 316 150 316 c 0
 216 316 264 364 264 416 c 0xe8
 264 477 194 520 140 522 c 1
 147 544 l 1
 198 544 239 572 239 621 c 0
 239 658 221 704 175 706 c 1
 141 702 110 678 83 662 c 1
 66 701 l 1
 96 722 137 730 175 730 c 0
 241 730 292 689 292 625 c 0xf0
 292 575 258 550 214 536 c 1
 269 524 314 474 314 420 c 0xe8
EndSplineSet
Validated: 1
EndChar

StartChar: onehalf
Encoding: 122 189 122
Width: 689
VWidth: 0
Flags: W
HStem: 0 44<494.222 649> 0 35<450 604.778> 293.304 23.9285<40 79.3 139.822 171> 407 28<471.226 559.169> 700 20G<357.639 431> 700 20G<357.639 431> 718.035 11.9643G<91.7581 125.798 91.7581 125.798>
VStem: 79.3 47.16<313.045 497.444 654.475 681.544> 79.3 52.4<348.489 681.544> 601 42<245.677 374.732>
LayerCount: 2
Fore
SplineSet
417 411 m 1x7040
 443 422 479 435 513 435 c 0
 573 435 616 406 633 365 c 0
 640 350 643 334 643 316 c 0
 643 244 597 185 557 145 c 0
 523 110 485 73 450 35 c 1x7040
 649 44 l 1
 649 0 l 1xb040
 410 0 l 1
 410 36 l 1
 468 100 509 142 554 204 c 0
 573 229 601 275 601 314 c 0
 601 370 563 407 505 407 c 0
 492 407 480 398 469 392 c 0
 455 383 442 375 422 368 c 1
 417 411 l 1x7040
363 720 m 1x7840
 431 720 l 1
 236 0 l 1
 170 0 l 1
 363 720 l 1x7840
EndSplineSet
Refer: 29 49 N 0.655 0 0 0.598213 13.8 293.304 2
Validated: 1
EndChar

StartChar: onequarter
Encoding: 121 188 123
Width: 666
VWidth: 0
Flags: W
HStem: 0 24<493 533 574 614> 100 30<389 533 574 626> 293 24<40 79 126 171> 710 10G<70.1613 126.157 357.639 431> 710 10G<70.1613 126.157 357.639 431>
VStem: 79 47<313 682> 533 41<18 100 130 366>
LayerCount: 2
Fore
SplineSet
40 293 m 1xe6
 40 317 l 1
 79 313 l 1
 79 610 l 1
 75 682 l 1
 40 676 l 1
 40 699 l 1
 125 730 l 1
 132 609 l 1
 126 311 l 1
 171 317 l 1
 171 293 l 1
 40 293 l 1xe6
533 100 m 1
 354 100 l 1
 354 136 l 1
 528 425 l 1
 574 425 l 1
 574 130 l 1
 626 133 l 1
 626 100 l 1
 574 100 l 1
 574 18 l 1
 614 24 l 1
 614 0 l 1
 493 0 l 1
 493 24 l 1
 533 18 l 1
 533 100 l 1
533 366 m 1
 389 130 l 1
 533 130 l 1
 533 366 l 1
363 720 m 1xf6
 431 720 l 1
 236 0 l 1
 170 0 l 1
 363 720 l 1xf6
EndSplineSet
Validated: 1
EndChar

StartChar: threequarters
Encoding: 123 190 124
Width: 776
VWidth: 0
Flags: W
HStem: 0 24<603 643 684 724> 100 30<499 643 684 736> 295 21<112.76 200.085> 522 22<147 186.969> 700 20G<467.639 541> 700 20G<467.639 541> 706 24<137.594 207.455>
VStem: 239 53<568.841 684.792> 264 50<358.33 471.127> 643 41<18 100 130 366>
LayerCount: 2
Fore
SplineSet
643 100 m 1xf040
 464 100 l 1
 464 136 l 1
 638 425 l 1
 684 425 l 1
 684 130 l 1
 736 133 l 1
 736 100 l 1
 684 100 l 1
 684 18 l 1
 724 24 l 1
 724 0 l 1
 603 0 l 1
 603 24 l 1
 643 18 l 1
 643 100 l 1xf040
643 366 m 1
 499 130 l 1
 643 130 l 1
 643 366 l 1
314 420 m 0xf2c0
 314 348 238 295 153 295 c 0
 112 295 73 307 40 329 c 1
 55 369 l 1
 80 351 110 316 150 316 c 0
 216 316 264 364 264 416 c 0xf2c0
 264 477 194 520 140 522 c 1
 147 544 l 1
 198 544 239 572 239 621 c 0
 239 658 221 704 175 706 c 1
 141 702 110 678 83 662 c 1
 66 701 l 1
 96 722 137 730 175 730 c 0
 241 730 292 689 292 625 c 0xf340
 292 575 258 550 214 536 c 1
 269 524 314 474 314 420 c 0xf2c0
473 720 m 1xf840
 541 720 l 1
 346 0 l 1
 280 0 l 1
 473 720 l 1xf840
EndSplineSet
Validated: 1
EndChar

StartChar: multiply
Encoding: 148 215 151
Width: 464
VWidth: 0
Flags: W
LayerCount: 2
Fore
SplineSet
215 402 m 1
 338 526 l 1
 381 483 l 1
 258 359 l 1
 382 235 l 1
 337 190 l 1
 212 314 l 1
 84 186 l 1
 41 229 l 1
 169 357 l 1
 40 487 l 1
 85 532 l 1
 215 402 l 1
EndSplineSet
Validated: 1
EndChar

StartChar: Oslash
Encoding: 149 216 152
Width: 570
VWidth: 0
Flags: W
HStem: -10 36<252.989 382.853> 694 36<258.063 383.298>
VStem: 74 79<234.99 541.626> 485 79<176.34 525.683>
LayerCount: 2
Fore
SplineSet
527 714 m 1
 578 672 l 1
 522 599 l 1
 553 533 564 450 564 369 c 0
 564 367 564 366 564 364 c 0
 564 305 559 249 549 201 c 0
 525 73 435 -10 322 -10 c 0
 321 -10 321 -10 320 -10 c 0
 289 -10 241 1 214 14 c 0
 178 34 151 61 131 93 c 1
 87 36 l 1
 40 77 l 1
 101 157 l 1
 80 220 75 292 74 362 c 0
 76 555 123 724 319 730 c 0
 393 730 447 702 484 658 c 1
 527 714 l 1
319 26 m 0
 453 26 485 203 485 350 c 0
 485 408 480 461 474 497 c 0
 472 507 470 518 467 529 c 1
 178 153 l 1
 201 79 245 26 319 26 c 0
160 234 m 1
 443 603 l 1
 419 654 382 694 320 694 c 0
 213 694 180 586 164 497 c 0
 158 452 153 398 153 344 c 0
 153 307 155 270 160 234 c 1
EndSplineSet
Validated: 1
EndChar

StartChar: oslash
Encoding: 181 248 153
Width: 577
VWidth: 0
Flags: W
HStem: 0 21G<158 229.39> 0 21G<158 229.39> 140 26<269 342.315> 535 25<232.469 301> 700 20G<345.658 419> 700 20G<345.658 419>
VStem: 40 99<259.772 436.197> 433 104<259.099 436.359>
LayerCount: 2
Fore
SplineSet
351 720 m 1xbb
 419 720 l 1
 372 548 l 1
 463 521 537 451 537 345 c 0
 537 211 408 140 284 140 c 0
 277 140 269 140 262 141 c 1
 224 0 l 1
 158 0 l 1
 199 152 l 2
 196 153 193 154 190 155 c 0
 90 188 40 268 40 348 c 0
 40 429 91 511 190 544 c 0
 221 555 254 560 287 560 c 0
 294 560 301 560 308 559 c 1
 351 720 l 1xbb
284 535 m 0
 193 535 139 438 139 349 c 0
 139 325 143 302 151 281 c 0
 165 243 186 215 210 195 c 1
 301 534 l 1
 296 535 290 535 284 535 c 0
361 507 m 1
 269 168 l 1
 276 167 283 166 290 166 c 0
 342 166 394 202 422 277 c 0
 430 297 433 320 433 344 c 0
 433 406 407 471 361 507 c 1
EndSplineSet
Validated: 1
EndChar

StartChar: AE
Encoding: 131 198 154
Width: 620
VWidth: 0
Flags: W
HStem: 0 30<424 580> 250 50<174 306> 352 30<420 520> 690 30<420 576>
VStem: 310 110<191.667 250> 340 80<416 690>
LayerCount: 2
Fore
SplineSet
306 300 m 1xf0
 240 630 l 1
 174 300 l 1
 306 300 l 1xf0
340 416 m 1xf4
 340 720 l 1
 576 720 l 1
 576 684 l 1
 420 690 l 1
 420 382 l 1
 520 384 l 1
 520 350 l 1
 420 352 l 1
 424 30 l 1
 580 34 l 1
 580 0 l 1
 422 0 l 1
 340 0 l 1xf4
 310 250 l 1xf8
 170 250 l 1
 140 0 l 1
 40 0 l 1
 200 720 l 1
 280 720 l 1
 340 416 l 1xf4
EndSplineSet
Validated: 1
EndChar

StartChar: germandbls
Encoding: 156 223 180
Width: 594
VWidth: 0
Flags: W
HStem: -10 37<312.588 414.292> 0 21G<40 120> 0 21G<40 120> 353 55<221.309 370.382> 354 66<277.725 451.174> 700 30<174.019 309.424>
VStem: 40 80<0 635.588> 164 56<409.677 473.473> 359 54<565.264 665.532> 490 65<115.596 306.422>
LayerCount: 2
Fore
SplineSet
120 0 m 1x57c0
 40 0 l 1
 40 538 l 1
 43 710 182 730 244 730 c 0
 354 730 413 697 413 616 c 0
 413 455 220 531 220 430 c 0
 220 413 234 408 255 408 c 0x57c0
 289 408 340 420 391 420 c 0
 448 420 503 406 530 345 c 0
 547 307 555 266 555 225 c 0
 555 105 485 -10 348 -10 c 0
 299 -10 255 2 214 20 c 1
 234 89 l 1
 273 70 311 41 348 30 c 0
 355 28 361 27 368 27 c 0
 430 27 490 114 490 211 c 0
 490 249 481 289 458 325 c 0
 442 350 401 354 353 354 c 0x8fc0
 335 354 316 353 298 353 c 0
 229 353 164 360 164 428 c 1
 164 530 297 510 344 570 c 0
 354 582 359 598 359 613 c 0
 359 655 322 700 244 700 c 0
 144 700 122 644 120 538 c 1
 120 0 l 1x57c0
EndSplineSet
Validated: 1
EndChar

StartChar: Ccedilla
Encoding: 132 199 188
Width: 507
VWidth: 0
Flags: W
HStem: -190 50<185.466 364.694> -10 30<301 339.292> 700 30<235.724 336.037>
VStem: 30 80<185.497 507.22>
LayerCount: 2
Back
SplineSet
294 -26 m 5
 326 -36 441 -53 441 -94 c 4
 441 -161 317 -190 233 -190 c 4
 214 -190 197 -189 184 -186 c 5
 185 -130 l 5
 213 -135 251 -140 289 -140 c 4
 344 -140 398 -129 421 -90 c 5
 386 -78 270 -69 234 -68 c 5
 265 -9 l 5
 76 1 30 176 30 374 c 4
 30 540 91 730 277 730 c 4
 341 730 406 718 455 680 c 5
 430 616 l 5
 374 653 340 700 285 700 c 4
 252 700 216 671 180 620 c 4
 122 545 110 463 110 360 c 4
 112 246 132 119 223 51 c 4
 243 38 269 21 295 20 c 4
 312 20 325 23 340 30 c 4
 378 49 408 89 445 112 c 5
 467 46 l 5
 420 9 362 -7 301 -10 c 5
 294 -26 l 5
EndSplineSet
Fore
SplineSet
294 -26 m 1
 326 -36 441 -53 441 -94 c 0
 441 -161 317 -190 233 -190 c 0
 214 -190 197 -189 184 -186 c 1
 185 -130 l 1
 213 -135 251 -140 289 -140 c 0
 344 -140 398 -129 421 -90 c 1
 386 -78 270 -69 234 -68 c 1
 265 -9 l 1
 76 2 30 176 30 374 c 0
 30 540 100 730 286 730 c 0
 350 730 406 718 455 680 c 1
 430 616 l 1
 374 653 341 700 286 700 c 0
 167 700 110 482 110 360 c 0
 112 239 139 26 286 20 c 0
 303 20 325 23 340 30 c 0
 378 49 408 89 445 112 c 1
 467 46 l 1
 420 9 362 -7 301 -10 c 1
 294 -26 l 1
EndSplineSet
Validated: 1
Substitution2: "'cv01' Character Variants 01 in Latin lookup 0-1" Ccedilla.min
EndChar

StartChar: Aogonek
Encoding: 193 260 214
Width: 497
VWidth: 0
Flags: W
HStem: -180 50<276.306 455.534> 0 21G<30 122.4> 0 21G<30 122.4> 250 50<164 296> 700 20G<185.556 274.444> 700 20G<185.556 274.444>
LayerCount: 2
Fore
SplineSet
296 300 m 1x90
 230 630 l 1
 164 300 l 1
 296 300 l 1x90
376 0 m 1xb8
 407 -58 l 1
 371 -59 255 -68 220 -80 c 1
 243 -119 297 -130 352 -130 c 0
 390 -130 428 -125 456 -120 c 1
 457 -176 l 1
 444 -179 427 -180 408 -180 c 0
 324 -180 200 -151 200 -84 c 0
 200 -43 310 -26 342 -16 c 1
 340 0 l 1xb8
 310 250 l 1
 150 250 l 1
 120 0 l 1
 30 0 l 1xd0
 190 720 l 1
 270 720 l 1
 430 0 l 1
 376 0 l 1xb8
EndSplineSet
Validated: 1
EndChar

StartChar: Eogonek
Encoding: 213 280 232
Width: 320
VWidth: 0
HStem: -180 50<96.306 275.534> 0 30<124 160 196 280> 352 30<120 220> 690 30<120 276>
VStem: 40 80<30 352 382 690>
LayerCount: 2
Fore
SplineSet
196 0 m 1
 227 -58 l 1
 191 -59 75 -68 40 -80 c 1
 63 -119 117 -130 172 -130 c 0
 210 -130 248 -125 276 -120 c 1
 277 -176 l 1
 264 -179 247 -180 228 -180 c 0
 144 -180 20 -151 20 -84 c 0
 20 -43 135 -26 167 -16 c 1
 160 0 l 1
 40 0 l 1
 40 720 l 1
 276 720 l 1
 276 684 l 1
 120 690 l 1
 120 382 l 1
 220 384 l 1
 220 350 l 1
 120 352 l 1
 124 30 l 1
 280 34 l 1
 280 0 l 1
 196 0 l 1
EndSplineSet
Validated: 1
EndChar

StartChar: Dcroat
Encoding: 205 272 240
Width: 593
VWidth: 0
Flags: W
HStem: 0 28<190 324.515> 328 58<40 110 190 304> 694 26<190 317.458>
VStem: 110 80<30 328 386 690> 473 80<216.373 497.919>
LayerCount: 2
Fore
SplineSet
40 328 m 1
 40 386 l 1
 110 386 l 1
 110 720 l 1
 276 720 l 2
 460 720 553 558 553 360 c 0
 553 246 526 157 474 95 c 0
 423 32 357 0 278 0 c 2
 110 0 l 1
 110 328 l 1
 40 328 l 1
190 30 m 1
 214 30 238 28 260 28 c 0
 286 28 309 31 327 42 c 0
 412 97 473 215 473 355 c 0
 473 359 473 364 473 368 c 0
 469 509 411 627 320 681 c 0
 307 691 288 694 265 694 c 0
 253 694 241 693 228 692 c 0
 205 691 193 690 190 690 c 2
 190 386 l 1
 304 386 l 1
 304 328 l 1
 190 328 l 1
 190 30 l 1
EndSplineSet
Validated: 1
EndChar

StartChar: Iogonek
Encoding: 235 302 254
Width: 300
VWidth: 0
HStem: -180 50<70.306 249.534> 0 34<40 110 190 260> 683 37<40 110 190 260>
VStem: 110 80<30 690>
LayerCount: 2
Fore
SplineSet
40 0 m 1
 40 34 l 1
 110 30 l 1
 110 690 l 1
 40 683 l 1
 40 720 l 1
 260 720 l 1
 260 683 l 1
 190 690 l 1
 190 30 l 1
 260 34 l 1
 260 0 l 1
 170 0 l 1
 201 -58 l 1
 165 -59 49 -68 14 -80 c 1
 37 -119 91 -130 146 -130 c 0
 184 -130 222 -125 250 -120 c 1
 251 -176 l 1
 238 -179 221 -180 202 -180 c 0
 118 -180 -6 -151 -6 -84 c 0
 -6 -43 109 -26 141 -16 c 1
 134 0 l 1
 40 0 l 1
EndSplineSet
Validated: 1
EndChar

StartChar: Scedilla
Encoding: 283 350 296
Width: 470
VWidth: 0
Flags: W
HStem: -190 50<106.466 285.694> 696 34<197.736 312.643>
VStem: 40 80<489.57 631.582> 352 78<109.153 269.513>
LayerCount: 2
Fore
SplineSet
222 -10 m 1
 215 -26 l 1
 247 -36 362 -53 362 -94 c 0
 362 -161 238 -190 154 -190 c 0
 135 -190 118 -189 105 -186 c 1
 106 -130 l 1
 134 -135 172 -140 210 -140 c 0
 265 -140 319 -129 342 -90 c 1
 307 -78 191 -69 155 -68 c 1
 186 -10 l 1
 139 -7 92 2 50 27 c 1
 70 94 l 1
 110 69 152 27 211 27 c 0
 248 27 285 45 310 70 c 0
 341 101 352 157 352 199 c 0
 352 327 188 346 111 408 c 0
 70 441 40 488 40 542 c 0
 40 672 147 730 260 730 c 0
 308 730 354 724 395 709 c 1
 370 644 l 1
 334 664 303 694 260 696 c 0
 259 696 259 696 258 696 c 0
 218 696 164 666 144 636 c 0
 127 612 120 576 120 547 c 0
 120 428 330 416 395 316 c 0
 418 282 430 250 430 210 c 0
 430 73 332 -3 222 -10 c 1
EndSplineSet
Validated: 1
EndChar

StartChar: uni0162
Encoding: 287 354 300
Width: 520
VWidth: 0
HStem: -180 50<160.466 339.694> 676 44<40 132 388 480>
VStem: 220 80<0 690>
LayerCount: 2
Fore
SplineSet
296 690 m 1
 300 0 l 1
 276 0 l 1
 269 -16 l 1
 301 -26 416 -43 416 -84 c 0
 416 -151 292 -180 208 -180 c 0
 189 -180 172 -179 159 -176 c 1
 160 -120 l 1
 188 -125 226 -130 264 -130 c 0
 319 -130 373 -119 396 -80 c 1
 361 -68 245 -59 209 -58 c 1
 240 0 l 1
 220 0 l 1
 224 690 l 1
 40 676 l 1
 40 720 l 1
 480 720 l 1
 480 676 l 1
 296 690 l 1
EndSplineSet
Validated: 1
EndChar

StartChar: Uogonek
Encoding: 303 370 314
Width: 490
VWidth: 0
Flags: W
HStem: -190 50<168.306 347.534> -10 40<181.797 232> 700 20G<40 120 370 450> 700 20G<40 120 370 450>
VStem: 40 80<102.308 720> 370 80<103.044 720>
LayerCount: 2
Fore
SplineSet
40 230 m 2xec
 40 720 l 1
 120 720 l 1
 120 716 120 709 120 701 c 0
 120 621 114 367 114 234 c 0
 114 193 114 164 116 154 c 0
 125 90 175 30 248 30 c 0
 322 30 364 88 374 154 c 0
 375 164 376 193 376 234 c 0
 376 373 370 644 370 710 c 0
 370 714 370 718 370 720 c 2
 450 720 l 1
 450 230 l 2
 450 87 394 -1 268 -9 c 1
 299 -68 l 1
 263 -69 147 -78 112 -90 c 1
 135 -129 189 -140 244 -140 c 0
 282 -140 320 -135 348 -130 c 1
 349 -186 l 1
 336 -189 319 -190 300 -190 c 0
 216 -190 92 -161 92 -94 c 0
 92 -53 207 -36 239 -26 c 1
 232 -10 l 1
 104 -4 40 76 40 230 c 2xec
EndSplineSet
Validated: 1
EndChar

StartChar: Tbar
Encoding: 291 358 327
Width: 520
VWidth: 0
Flags: W
HStem: 0 21G<220 300> 0 21G<220 300> 328 58<115 222 298 399> 676 44<40 132 388 480>
VStem: 222 76<0 328 386 690>
LayerCount: 2
Fore
SplineSet
115 328 m 1xb8
 115 386 l 1
 222 386 l 1
 224 690 l 1
 40 676 l 1
 40 720 l 1
 480 720 l 1
 480 676 l 1
 296 690 l 1
 298 386 l 1
 399 386 l 1
 399 328 l 1
 298 328 l 1
 300 0 l 1
 220 0 l 1
 222 328 l 1
 115 328 l 1xb8
EndSplineSet
Validated: 1
EndChar

StartChar: uni01EA
Encoding: 354 490 364
Width: 570
VWidth: 0
HStem: -190 50<207.306 386.534> 694 36<224.063 345.552>
VStem: 40 79<174.698 541.626> 451 79<176.34 537.859>
LayerCount: 2
Fore
SplineSet
285 26 m 0
 419 26 451 203 451 350 c 0
 451 408 446 461 440 497 c 0
 423 585 389 694 286 694 c 0
 179 694 146 586 130 497 c 0
 124 452 119 398 119 344 c 0
 119 189 155 26 285 26 c 0
285 730 m 1
 478 730 530 544 530 369 c 0
 530 367 530 366 530 364 c 0
 530 305 525 249 515 201 c 0
 492 80 411 -0 307 -9 c 1
 338 -68 l 1
 302 -69 186 -78 151 -90 c 1
 174 -129 228 -140 283 -140 c 0
 321 -140 359 -135 387 -130 c 1
 388 -186 l 1
 375 -189 358 -190 339 -190 c 0
 255 -190 131 -161 131 -94 c 0
 131 -53 246 -36 278 -26 c 1
 272 -9 l 1
 242 -7 203 3 180 14 c 0
 59 82 42 226 40 362 c 0
 42 555 89 724 285 730 c 1
EndSplineSet
Validated: 1
EndChar

StartChar: uni0202
Encoding: 374 514 383
Width: 460
VWidth: 0
Flags: W
HStem: 0 21G<30 122.4 30 122.4 337.6 430 337.6 430> 250 50<164 296> 700 20G<185.556 274.444 185.556 274.444> 779 34<157.226 294.518>
VStem: 128.5 22<750 764.766> 301.5 22<750 764.766>
LayerCount: 2
Fore
SplineSet
323.5 750 m 1
 301.5 750 l 1
 301.5 769 264.5 779 226.5 779 c 0
 188.5 779 150.5 769 150.5 750 c 1
 128.5 750 l 1
 128.5 792 177.5 813 226.5 813 c 0
 274.5 813 323.5 792 323.5 750 c 1
EndSplineSet
Refer: 0 65 N 1 0 0 1 0 0 3
Validated: 1
EndChar

StartChar: uni0203
Encoding: 375 515 384
Width: 460
VWidth: 0
Flags: W
HStem: 0 21G<30 122.4 30 122.4 337.6 430 337.6 430> 250 50<164 296> 700 20G<185.556 274.444 185.556 274.444> 779 34<157.226 294.518>
VStem: 128.5 22<750 764.766> 301.5 22<750 764.766>
LayerCount: 2
Fore
SplineSet
323.5 750 m 1
 301.5 750 l 1
 301.5 769 264.5 779 226.5 779 c 0
 188.5 779 150.5 769 150.5 750 c 1
 128.5 750 l 1
 128.5 792 177.5 813 226.5 813 c 0
 274.5 813 323.5 792 323.5 750 c 1
EndSplineSet
Refer: 125 97 N 1 0 0 1 0 0 3
Validated: 1
EndChar

StartChar: uni0206
Encoding: 378 518 385
Width: 320
VWidth: 0
HStem: 0 30<124 280> 352 30<120 220> 690 30<120 276> 779 34<89.3073 226.693>
VStem: 40 80<30 352 382 690> 60 22<750 764.766> 234 22<750 764.766>
LayerCount: 2
Fore
SplineSet
256 750 m 1xf6
 234 750 l 1
 234 769 196 779 158 779 c 0
 120 779 82 769 82 750 c 1
 60 750 l 1
 60 792 110 813 158 813 c 0
 206 813 256 792 256 750 c 1xf6
EndSplineSet
Refer: 5 69 N 1 0 0 1 0 0 3
Validated: 1
EndChar

StartChar: uni0207
Encoding: 379 519 386
Width: 320
VWidth: 0
HStem: 0 30<124 280> 352 30<120 220> 690 30<120 276> 779 34<89.3073 226.693>
VStem: 40 80<30 352 382 690> 60 22<750 764.766> 234 22<750 764.766>
LayerCount: 2
Fore
SplineSet
256 750 m 1xf6
 234 750 l 1
 234 769 196 779 158 779 c 0
 120 779 82 769 82 750 c 1
 60 750 l 1
 60 792 110 813 158 813 c 0
 206 813 256 792 256 750 c 1xf6
EndSplineSet
Refer: 129 101 N 1 0 0 1 0 0 3
Validated: 1
EndChar

StartChar: uni020A
Encoding: 382 522 387
Width: 300
VWidth: 0
HStem: 0 34<40 110 190 260> 683 37<40 110 190 260> 779 34<81.3073 218.693>
VStem: 52 22<750 764.766> 110 80<30 690> 226 22<750 764.766>
CounterMasks: 1 1c
LayerCount: 2
Fore
SplineSet
248 750 m 1
 226 750 l 1
 226 769 188 779 150 779 c 0
 112 779 74 769 74 750 c 1
 52 750 l 1
 52 792 102 813 150 813 c 0
 198 813 248 792 248 750 c 1
EndSplineSet
Refer: 9 73 N 1 0 0 1 0 0 3
Validated: 1
EndChar

StartChar: uni020B
Encoding: 383 523 388
Width: 300
VWidth: 0
HStem: 779 34<81.3073 218.693>
VStem: 52 22<750 764.766> 226 22<750 764.766>
LayerCount: 2
Fore
SplineSet
248 750 m 1
 226 750 l 1
 226 769 188 779 150 779 c 0
 112 779 74 769 74 750 c 1
 52 750 l 1
 52 792 102 813 150 813 c 0
 198 813 248 792 248 750 c 1
EndSplineSet
Refer: 257 305 N 1 0 0 1 0 0 3
Validated: 1
EndChar

StartChar: uni020E
Encoding: 386 526 389
Width: 550
VWidth: 0
Flags: W
HStem: -10 36<211.407 338.853> 694 36<214.063 335.552> 779 34<206.544 343.725>
VStem: 30 79<174.698 541.626> 178 22<750 764.766> 350 22<750 764.766> 441 79<176.34 537.859>
LayerCount: 2
Fore
SplineSet
372 750 m 1
 350 750 l 1
 350 769 314 779 276 779 c 0
 238 779 200 769 200 750 c 1
 178 750 l 1
 178 792 226 813 276 813 c 0
 324 813 372 792 372 750 c 1
EndSplineSet
Refer: 15 79 N 1 0 0 1 0 0 3
Validated: 1
EndChar

StartChar: uni020F
Encoding: 387 527 390
Width: 550
VWidth: 0
Flags: W
HStem: -10 36<211.407 338.853> 694 36<214.063 335.552> 779 34<206.544 343.725>
VStem: 30 79<174.698 541.626> 178 22<750 764.766> 350 22<750 764.766> 441 79<176.34 537.859>
LayerCount: 2
Fore
SplineSet
372 750 m 1
 350 750 l 1
 350 769 314 779 276 779 c 0
 238 779 200 769 200 750 c 1
 178 750 l 1
 178 792 226 813 276 813 c 0
 324 813 372 792 372 750 c 1
EndSplineSet
Refer: 139 111 N 1 0 0 1 0 0 3
Validated: 1
EndChar

StartChar: uni0212
Encoding: 390 530 391
Width: 470
VWidth: 0
HStem: 0 21G<40 120 40 120 332.778 430 332.778 430> 360 30<110 210> 690 30<110 292.894> 779 34<139.307 276.693>
VStem: 40 70<108 360 390 690> 40 80<0 252> 110 22<750 764.766> 284 22<750 764.766> 360 65<450.823 632.289>
LayerCount: 2
Fore
SplineSet
306 750 m 1xf380
 284 750 l 1
 284 769 246 779 208 779 c 0
 170 779 132 769 132 750 c 1
 110 750 l 1
 110 792 160 813 208 813 c 0
 256 813 306 792 306 750 c 1xf380
EndSplineSet
Refer: 18 82 N 1 0 0 1 0 0 3
Validated: 1
EndChar

StartChar: uni0216
Encoding: 394 534 393
Width: 490
VWidth: 0
Flags: W
HStem: -10 40<182.065 313.162> 700 20G<40 120 40 120 370 450 370 450> 779 34<176.544 313.725>
VStem: 40 80<103.438 720> 148 22<750 764.766> 320 22<750 764.766> 370 80<102.783 720>
LayerCount: 2
Fore
SplineSet
342 750 m 1
 320 750 l 1
 320 769 284 779 246 779 c 0
 208 779 170 769 170 750 c 1
 148 750 l 1
 148 792 196 813 246 813 c 0
 294 813 342 792 342 750 c 1
EndSplineSet
Refer: 21 85 N 1 0 0 1 0 0 3
Validated: 1
EndChar

StartChar: uni0217
Encoding: 395 535 394
Width: 490
VWidth: 0
Flags: W
HStem: -10 40<182.065 313.162> 700 20G<40 120 40 120 370 450 370 450> 779 34<176.544 313.725>
VStem: 40 80<103.438 720> 148 22<750 764.766> 320 22<750 764.766> 370 80<102.783 720>
LayerCount: 2
Fore
SplineSet
342 750 m 1
 320 750 l 1
 320 769 284 779 246 779 c 0
 208 779 170 769 170 750 c 1
 148 750 l 1
 148 792 196 813 246 813 c 0
 294 813 342 792 342 750 c 1
EndSplineSet
Refer: 145 117 N 1 0 0 1 0 0 3
Validated: 1
EndChar

StartChar: uni0228
Encoding: 402 552 401
Width: 320
VWidth: 0
HStem: -180 50<30.466 209.694> 0 30<146 280> 352 30<120 220> 690 30<120 276>
VStem: 40 80<30 352 382 690>
LayerCount: 2
Fore
SplineSet
146 0 m 1
 139 -16 l 1
 171 -26 286 -43 286 -84 c 0
 286 -151 162 -180 78 -180 c 0
 59 -180 42 -179 29 -176 c 1
 30 -120 l 1
 58 -125 96 -130 134 -130 c 0
 189 -130 243 -119 266 -80 c 1
 231 -68 115 -59 79 -58 c 1
 110 0 l 1
 40 0 l 1
 40 720 l 1
 276 720 l 1
 276 684 l 1
 120 690 l 1
 120 382 l 1
 220 384 l 1
 220 350 l 1
 120 352 l 1
 124 30 l 1
 280 34 l 1
 280 0 l 1
 146 0 l 1
EndSplineSet
Validated: 1
EndChar

StartChar: uni030F
Encoding: 434 783 415
Width: 346
VWidth: 0
Flags: W
HStem: 751 167
VStem: 40 266
LayerCount: 2
Fore
SplineSet
40 847 m 1
 75 918 l 1
 186 751 l 1
 40 847 l 1
161 847 m 1
 195 918 l 1
 306 751 l 1
 161 847 l 1
EndSplineSet
Validated: 1
EndChar

StartChar: Hbar
Encoding: 227 294 428
Width: 520
VWidth: 0
Flags: W
HStem: 0 21G<80 160 360 440> 0 21G<80 160 360 440> 390 30<150 370> 488 58<40 80 154 366 440 480> 700 20G<80 160 360 440> 700 20G<80 160 360 440>
VStem: 80 70<117 390 420 488> 360 80<0 273 546 720> 370 70<117 390 420 488>
LayerCount: 2
Fore
SplineSet
40 488 m 1xba80
 40 546 l 1
 80 546 l 1
 80 720 l 1
 160 720 l 1
 154 546 l 1
 366 546 l 1
 360 720 l 1
 440 720 l 1
 440 546 l 1xbb
 480 546 l 1
 480 488 l 1
 440 488 l 1xba80
 440 0 l 1
 360 0 l 1xbb
 370 390 l 1
 150 390 l 1
 160 0 l 1
 80 0 l 1
 80 488 l 1
 40 488 l 1xba80
368 488 m 1
 152 488 l 1
 150 420 l 1
 370 420 l 1x3280
 368 488 l 1
EndSplineSet
Validated: 1
EndChar

StartChar: Lslash
Encoding: 254 321 430
Width: 333
VWidth: 0
Flags: W
HStem: -10 40<216 293>
VStem: 103 80<20 319 417 710>
LayerCount: 2
Fore
SplineSet
63 301 m 1
 40 354 l 1
 103 382 l 1
 103 710 l 1
 183 710 l 1
 183 417 l 1
 227 436 l 1
 250 382 l 1
 183 353 l 1
 183 20 l 1
 293 30 l 1
 293 -10 l 1
 103 -10 l 1
 103 319 l 1
 63 301 l 1
EndSplineSet
Validated: 1
EndChar

StartChar: uni2042
Encoding: 450 8258 431
Width: 818
VWidth: 0
Flags: W
HStem: 701 20G<368 445> 701 20G<368 445>
LayerCount: 2
Fore
SplineSet
447 557 m 1x40
 530 480 l 1
 460 444 l 1
 408 540 l 1
 406 537 l 1
 390 499 366 465 334 444 c 1
 282 480 l 1
 368 556 l 1
 338 559 291 572 264 584 c 1
 284 660 l 1
 388 600 l 1
 368 720 l 1
 446 721 l 1
 444 687 436 633 427 601 c 1
 530 660 l 1
 552 584 l 1
 552 584 509 564 447 557 c 1x40
673 117 m 1
 756 40 l 1
 686 4 l 1
 634 100 l 1
 632 97 l 1
 616 59 592 25 560 4 c 1
 508 40 l 1
 594 116 l 1
 564 119 517 132 490 144 c 1
 510 220 l 1
 614 160 l 1
 594 280 l 1
 672 281 l 1
 670 247 662 193 653 161 c 1
 756 220 l 1
 778 144 l 1
 778 144 735 124 673 117 c 1
223 117 m 1
 306 40 l 1
 236 4 l 1
 184 100 l 1
 182 97 l 1
 166 59 142 25 110 4 c 1
 58 40 l 1
 144 116 l 1
 114 119 67 132 40 144 c 1
 60 220 l 1
 164 160 l 1
 144 280 l 1
 222 281 l 1
 220 247 212 193 203 161 c 1
 306 220 l 1
 328 144 l 1
 328 144 285 124 223 117 c 1
EndSplineSet
Validated: 1
EndChar

StartChar: notequal
Encoding: 459 8800 432
Width: 500
VWidth: 0
Flags: W
HStem: 249 62<40 187 270 460> 409 62<40 229 313 460>
LayerCount: 2
Fore
SplineSet
40 249 m 1
 40 311 l 1
 203 311 l 1
 229 409 l 1
 40 409 l 1
 40 471 l 1
 246 471 l 1
 268 554 l 1
 336 554 l 1
 313 471 l 1
 460 471 l 1
 460 409 l 1
 297 409 l 1
 270 311 l 1
 460 311 l 1
 460 249 l 1
 253 249 l 1
 224 142 l 1
 158 142 l 1
 187 249 l 1
 40 249 l 1
EndSplineSet
Validated: 1
EndChar

StartChar: approxequal
Encoding: 458 8776 434
Width: 620
VWidth: 0
Flags: W
HStem: 168 48<382.995 511.282> 286 62<126.372 239.061> 370 48<382.995 511.282> 488 62<126.372 239.061>
LayerCount: 2
Fore
SplineSet
580 430 m 1
 580 430 549 370 440 370 c 0
 335 370 249 488 180 488 c 0
 111 488 40 370 40 370 c 1
 40 420 l 1
 40 420 90 550 180 550 c 0
 268 550 372 418 440 418 c 0
 508 418 580 490 580 490 c 1
 580 430 l 1
580 228 m 1
 580 228 549 168 440 168 c 0
 335 168 249 286 180 286 c 0
 111 286 40 168 40 168 c 1
 40 218 l 1
 40 218 90 348 180 348 c 0
 268 348 372 216 440 216 c 0
 508 216 580 288 580 288 c 1
 580 228 l 1
EndSplineSet
Validated: 1
EndChar

StartChar: bullet
Encoding: 445 8226 436
Width: 253
VWidth: 0
Flags: W
HStem: 270 178<70.6716 180.538>
VStem: 40 173<301.81 418.728>
LayerCount: 2
Fore
SplineSet
40 361 m 0
 40 411 76 448 126 448 c 0
 176 448 213 408 213 360 c 0
 213 318 188 291 159 277 c 0
 149 272 138 270 126 270 c 0
 77 270 40 311 40 361 c 0
EndSplineSet
Validated: 1
EndChar

StartChar: greaterequal
Encoding: 461 8805 437
Width: 500
VWidth: 0
Flags: W
HStem: 90 60<168 460>
LayerCount: 2
Fore
SplineSet
168 150 m 1
 460 150 l 1
 460 90 l 1
 70 90 l 1
 40 90 l 1
 40 150 l 1
 410 360 l 1
 40 580 l 1
 70 640 l 1
 460 390 l 1
 460 330 l 1
 168 150 l 1
EndSplineSet
Validated: 1
EndChar

StartChar: lessequal
Encoding: 460 8804 438
Width: 500
VWidth: 0
Flags: W
HStem: 90 60<40 332>
LayerCount: 2
Fore
SplineSet
332 150 m 1
 40 330 l 1
 40 390 l 1
 430 640 l 1
 460 580 l 1
 90 360 l 1
 460 150 l 1
 460 90 l 1
 430 90 l 1
 40 90 l 1
 40 150 l 1
 332 150 l 1
EndSplineSet
Validated: 1
EndChar

StartChar: infinity
Encoding: 456 8734 439
Width: 578
VWidth: 0
Flags: W
HStem: 208 63<98.9913 234.494 340.832 475.446> 451 60<98.9808 235.385 341.401 477.296>
VStem: 40 15<329.191 389.815> 280 17<328.411 391.008> 522 16<329.843 395.419>
LayerCount: 2
Fore
SplineSet
522 362 m 0
 522 418 463 451 408 451 c 0
 394 451 380 449 367 444 c 0
 321 426 297 392 297 359 c 0
 297 327 319 295 365 278 c 0
 377 273 391 271 405 271 c 0
 461 271 522 306 522 362 c 0
280 362 m 0
 280 418 221 451 167 451 c 0
 152 451 138 449 126 444 c 0
 80 426 55 392 55 359 c 0
 55 327 78 295 123 278 c 0
 135 273 149 271 163 271 c 0
 219 271 280 306 280 362 c 0
165 208 m 0
 83 208 40 287 40 362 c 0
 40 382 43 402 49 420 c 0
 69 481 118 511 167 511 c 0
 216 511 266 480 286 420 c 0
 287 417 288 414 288 412 c 1
 289 414 290 417 291 420 c 0
 311 481 360 511 409 511 c 0
 458 511 508 480 528 420 c 0
 535 401 538 381 538 361 c 0
 538 285 492 208 407 208 c 0
 344 208 304 255 289 310 c 1
 273 254 230 208 165 208 c 0
EndSplineSet
Validated: 1
EndChar

StartChar: asteriskmath
Encoding: 455 8727 441
Width: 368
VWidth: 0
Flags: W
HStem: 202 318
VStem: 161 46<202 330 394 520>
LayerCount: 2
Fore
SplineSet
303 255 m 1
 202 330 l 1
 207 202 l 1
 161 202 l 1
 166 330 l 1
 64 254 l 1
 40 295 l 1
 154 362 l 1
 40 429 l 1
 64 470 l 1
 166 393 l 1
 161 520 l 1
 207 520 l 1
 202 394 l 1
 303 470 l 1
 328 429 l 1
 216 362 l 1
 328 295 l 1
 303 255 l 1
EndSplineSet
Validated: 1
EndChar

StartChar: minus
Encoding: 454 8722 442
Width: 460
VWidth: 0
Flags: W
HStem: 326 61<40 420>
LayerCount: 2
Fore
SplineSet
420 387 m 1
 420 326 l 1
 40 326 l 1
 40 387 l 1
 420 387 l 1
EndSplineSet
Validated: 1
EndChar

StartChar: Egrave.min
Encoding: 467 -1 444
Width: 320
VWidth: 0
Flags: W
HStem: 0 30<124 280> 352 30<120 220> 616 30<120 276> 676 44<40 71.9773>
VStem: 40 80<30 352 382 616> 40 201
LayerCount: 2
Fore
SplineSet
280 0 m 1xf8
 40 0 l 1
 40 646 l 1xf4
 276 646 l 1
 276 610 l 1
 120 616 l 1
 120 382 l 1
 220 384 l 1
 220 350 l 1
 120 352 l 1
 124 30 l 1
 280 34 l 1
 280 0 l 1xf8
EndSplineSet
Refer: 103 715 N 1 0 0 1 0 -74 2
Validated: 1
Substitution2: "'cv01' Character Variants 01 in Latin lookup 0-2" egrave
Substitution2: "'cv01' Character Variants 01 in Latin lookup 0-1" Egrave
EndChar

StartChar: Eacute.min
Encoding: 468 -1 445
Width: 320
VWidth: 0
Flags: W
HStem: 0 30<124 280> 352 30<120 220> 616 30<120 276> 676 0<79 110.977> 676 44<248.023 280>
VStem: 40 80<30 352 382 616>
LayerCount: 2
Fore
SplineSet
280 0 m 1xe4
 40 0 l 1
 40 646 l 1
 276 646 l 1
 276 610 l 1
 120 616 l 1
 120 382 l 1
 220 384 l 1
 220 350 l 1
 120 352 l 1
 124 30 l 1
 280 34 l 1
 280 0 l 1xe4
EndSplineSet
Refer: 102 714 N 1 0 0 1 39 -74 2
Validated: 1
Substitution2: "'cv01' Character Variants 01 in Latin lookup 0-2" eacute
Substitution2: "'cv01' Character Variants 01 in Latin lookup 0-1" Eacute
EndChar

StartChar: Ecircumflex.min
Encoding: 469 -1 446
Width: 321
VWidth: 0
Flags: W
HStem: 0 30<124 280> 352 30<120 220> 550 30<120 276> 625 95
VStem: 40 235.834 40 80<30 352 382 550>
LayerCount: 2
Fore
SplineSet
280 0 m 1xf4
 40 0 l 1
 40 580 l 1
 276 580 l 1
 276 544 l 1
 120 550 l 1
 120 382 l 1
 220 384 l 1
 220 350 l 1
 120 352 l 1
 124 30 l 1
 280 34 l 1
 280 0 l 1xf4
EndSplineSet
Refer: 94 710 N 0.995079 0 0 1 0.196808 -125 2
Validated: 1
Substitution2: "'cv01' Character Variants 01 in Latin lookup 0-2" ecircumflex
Substitution2: "'cv01' Character Variants 01 in Latin lookup 0-1" Ecircumflex
EndChar

StartChar: Igrave.min
Encoding: 476 -1 453
Width: 300
VWidth: 0
Flags: W
HStem: 0 34<40 110 190 260> 609 37<40 110 190 260> 676 44<40 71.9773>
VStem: 40 201 110 80<30 616>
LayerCount: 2
Fore
SplineSet
40 0 m 1xf0
 40 34 l 1xf0
 110 30 l 1
 110 616 l 1xe8
 40 609 l 1
 40 646 l 1xf0
 260 646 l 1
 260 609 l 1
 190 616 l 1
 190 30 l 1xe8
 260 34 l 1
 260 0 l 1
 40 0 l 1xf0
EndSplineSet
Refer: 103 715 N 1 0 0 1 0 -74 2
Validated: 1
Substitution2: "'cv01' Character Variants 01 in Latin lookup 0-2" igrave
Substitution2: "'cv01' Character Variants 01 in Latin lookup 0-1" Igrave
EndChar

StartChar: Iacute.min
Encoding: 477 -1 454
Width: 300
VWidth: 0
Flags: W
HStem: 0 34<40 110 190 260> 609 37<40 110 190 260> 676 0<59 90.9773> 676 44<228.023 260>
VStem: 110 80<30 616>
LayerCount: 2
Fore
SplineSet
40 0 m 1xc8
 40 34 l 1
 110 30 l 1
 110 616 l 1
 40 609 l 1
 40 646 l 1
 260 646 l 1
 260 609 l 1
 190 616 l 1
 190 30 l 1
 260 34 l 1
 260 0 l 1
 40 0 l 1xc8
EndSplineSet
Refer: 102 714 N 1 0 0 1 19 -74 2
Validated: 1
Substitution2: "'cv01' Character Variants 01 in Latin lookup 0-2" iacute
Substitution2: "'cv01' Character Variants 01 in Latin lookup 0-1" Iacute
EndChar

StartChar: Icircumflex.min
Encoding: 478 -1 455
Width: 300
VWidth: 0
Flags: W
HStem: 0 34<40 110 190 260> 543 37<40 110 190 260> 625 95
VStem: 40.9283 220 110 80<30 550>
LayerCount: 2
Fore
SplineSet
40 0 m 1xe8
 40 34 l 1
 110 30 l 1
 110 550 l 1
 40 543 l 1
 40 580 l 1
 260 580 l 1
 260 543 l 1
 190 550 l 1
 190 30 l 1
 260 34 l 1
 260 0 l 1
 40 0 l 1xe8
EndSplineSet
Refer: 94 710 N 0.92827 0 0 1 3.79747 -125 2
Validated: 1
Substitution2: "'cv01' Character Variants 01 in Latin lookup 0-2" icircumflex
Substitution2: "'cv01' Character Variants 01 in Latin lookup 0-1" Icircumflex
EndChar

StartChar: Idieresis.min
Encoding: 479 -1 456
Width: 300
VWidth: 0
Flags: W
HStem: 0 34<40 110 190 260> 580 37<40 110 190 260> 657 63<62.5505 122.261 173.739 233.45>
VStem: 61 63<658.739 718.45> 110 80<30 587> 172 63<658.739 718.45>
LayerCount: 2
Fore
SplineSet
40 0 m 1xe8
 40 34 l 1
 110 30 l 1
 110 587 l 1
 40 580 l 1
 40 617 l 1
 260 617 l 1
 260 580 l 1
 190 587 l 1
 190 30 l 1
 260 34 l 1
 260 0 l 1
 40 0 l 1xe8
EndSplineSet
Refer: 76 168 N 1 0 0 1 21 -93 2
Validated: 1
Substitution2: "'cv01' Character Variants 01 in Latin lookup 0-2" idieresis
Substitution2: "'cv01' Character Variants 01 in Latin lookup 0-1" Idieresis
EndChar

StartChar: Itilde.min
Encoding: 480 -1 457
Width: 300
VWidth: 0
Flags: W
HStem: 0 34<40 110 190 260> 543 37<40 110 190 260> 633 31<162.029 208.278> 687 32<88.7152 135.802>
VStem: 40 39.8087<628 685.655> 110 80<30 550> 217.243 40.7565<665.412 720>
LayerCount: 2
Fore
SplineSet
40 0 m 1
 40 34 l 1
 110 30 l 1
 110 550 l 1
 40 543 l 1
 40 580 l 1
 260 580 l 1
 260 543 l 1
 190 550 l 1
 190 30 l 1
 260 34 l 1
 260 0 l 1
 40 0 l 1
EndSplineSet
Refer: 93 732 N 0.947826 0 0 1 2.08696 -122 2
Validated: 1
Substitution2: "'cv01' Character Variants 01 in Latin lookup 0-2" itilde
Substitution2: "'cv01' Character Variants 01 in Latin lookup 0-1" Itilde
EndChar

StartChar: Ntilde.min
Encoding: 481 -1 458
Width: 490
VWidth: 0
Flags: W
HStem: 0 21G<40 120 349.796 450> 0 21G<40 120 349.796 450> 633 31<258.746 307.541> 687 32<181.397 231.076>
VStem: 40 80<0 343> 40 70<147 490> 130 42<628 685.655> 317 43<665.412 720> 381 69<102 580>
LayerCount: 2
Fore
SplineSet
360 720 m 1x3380
 360 719 360 717 360 716 c 0
 360 668 343 633 297 633 c 1
 252 633 235 687 198 687 c 0
 178 687 174 646 172 628 c 1
 130 628 l 1
 130 630 130 632 130 634 c 0
 130 679 151 719 193 719 c 0
 239 719 252 664 291 664 c 0
 309 664 316 701 317 720 c 1
 360 720 l 1x3380
381 102 m 1
 376 580 l 1
 450 580 l 1
 450 0 l 1
 360 0 l 1
 110 490 l 1xb780
 120 0 l 1
 40 0 l 1xbb80
 40 580 l 1xb780
 124 580 l 1
 381 102 l 1
EndSplineSet
Validated: 1
Substitution2: "'cv01' Character Variants 01 in Latin lookup 0-2" ntilde
Substitution2: "'cv01' Character Variants 01 in Latin lookup 0-1" Ntilde
EndChar

StartChar: Ugrave.min
Encoding: 487 -1 464
Width: 490
VWidth: 0
Flags: W
HStem: -10 40<182.065 313.162> 676 44<150 181.977>
VStem: 40 80<103.438 646> 150 201 370 80<102.783 646>
LayerCount: 2
Fore
SplineSet
450 230 m 2
 450 80 388 -10 248 -10 c 0
 109 -10 40 70 40 230 c 2
 40 646 l 1
 120 646 l 1
 120 642 120 635 120 627 c 0
 120 547 114 367 114 234 c 0
 114 193 114 164 116 154 c 0
 125 90 175 30 248 30 c 0
 322 30 364 88 374 154 c 0
 375 164 376 193 376 234 c 0
 376 373 370 570 370 636 c 0
 370 640 370 644 370 646 c 1
 450 646 l 1
 450 230 l 2
EndSplineSet
Refer: 103 715 N 1 0 0 1 110 -74 2
Validated: 1
Substitution2: "'cv01' Character Variants 01 in Latin lookup 0-2" ugrave
Substitution2: "'cv01' Character Variants 01 in Latin lookup 0-1" Ugrave
EndChar

StartChar: Uacute.min
Encoding: 488 -1 465
Width: 490
VWidth: 0
Flags: W
HStem: -10 40<182.065 313.162> 676 0<140 171.977> 676 44<309.023 341>
VStem: 40 80<103.438 646> 370 80<102.783 646>
LayerCount: 2
Fore
SplineSet
450 230 m 2x98
 450 80 388 -10 248 -10 c 0
 109 -10 40 70 40 230 c 2
 40 646 l 1
 120 646 l 1
 120 642 120 635 120 627 c 0
 120 547 114 367 114 234 c 0
 114 193 114 164 116 154 c 0
 125 90 175 30 248 30 c 0
 322 30 364 88 374 154 c 0
 375 164 376 193 376 234 c 0
 376 373 370 570 370 636 c 0
 370 640 370 644 370 646 c 1
 450 646 l 1
 450 230 l 2x98
EndSplineSet
Refer: 102 714 N 1 0 0 1 100 -74 2
Validated: 1
Substitution2: "'cv01' Character Variants 01 in Latin lookup 0-2" uacute
Substitution2: "'cv01' Character Variants 01 in Latin lookup 0-1" Uacute
EndChar

StartChar: Ucircumflex.min
Encoding: 489 -1 466
Width: 490
VWidth: 0
Flags: W
HStem: -10 40<182.065 313.162> 625 95
VStem: 40 80<103.438 580> 126 237 370 80<102.783 580>
LayerCount: 2
Fore
SplineSet
450 230 m 2
 450 80 388 -10 248 -10 c 0
 109 -10 40 70 40 230 c 2
 40 580 l 1
 120 580 l 1
 120 576 120 569 120 561 c 0
 120 481 114 367 114 234 c 0
 114 193 114 164 116 154 c 0
 125 90 175 30 248 30 c 0
 322 30 364 88 374 154 c 0
 375 164 376 193 376 234 c 0
 376 373 370 504 370 570 c 0
 370 574 370 578 370 580 c 1
 450 580 l 1
 450 230 l 2
EndSplineSet
Refer: 94 710 N 1 0 0 1 86 -125 2
Validated: 1
Substitution2: "'cv01' Character Variants 01 in Latin lookup 0-2" ucircumflex
Substitution2: "'cv01' Character Variants 01 in Latin lookup 0-1" Ucircumflex
EndChar

StartChar: Udieresis.min
Encoding: 490 -1 467
Width: 490
VWidth: 0
Flags: W
HStem: -10 40<182.065 313.162> 657 63<156.55 216.261 267.739 327.45>
VStem: 40 80<103.438 602> 155 63<658.739 718.45> 266 63<658.739 718.45> 370 80<102.783 602>
LayerCount: 2
Fore
SplineSet
450 230 m 2
 450 80 388 -10 248 -10 c 0
 109 -10 40 70 40 230 c 2
 40 602 l 1
 120 602 l 1
 120 598 120 591 120 583 c 0
 120 503 114 367 114 234 c 0
 114 193 114 164 116 154 c 0
 125 90 175 30 248 30 c 0
 322 30 364 88 374 154 c 0
 375 164 376 193 376 234 c 0
 376 373 370 526 370 592 c 0
 370 596 370 600 370 602 c 1
 450 602 l 1
 450 230 l 2
EndSplineSet
Refer: 76 168 N 1 0 0 1 115 -93 2
Validated: 1
Substitution2: "'cv01' Character Variants 01 in Latin lookup 0-2" udieresis
Substitution2: "'cv01' Character Variants 01 in Latin lookup 0-1" Udieresis
EndChar

StartChar: Yacute.min
Encoding: 491 -1 468
Width: 492
VWidth: 0
Flags: W
HStem: 0 21G<210 280> 0 21G<210 280> 676 0<135 166.977> 676 44<304.023 336>
VStem: 210 70<0 179.2> 220 60<76.8 256>
LayerCount: 2
Fore
SplineSet
280 256 m 1x84
 280 0 l 1
 210 0 l 1x88
 220 256 l 1
 20 646 l 1
 100 646 l 1
 244 316 l 1
 390 646 l 1
 472 646 l 1
 280 256 l 1x84
EndSplineSet
Refer: 102 714 N 1 0 0 1 95 -74 2
Validated: 1
Substitution2: "'cv01' Character Variants 01 in Latin lookup 0-1" Yacute
Substitution2: "'cv01' Character Variants 01 in Latin lookup 0-2" yacute
EndChar

StartChar: Ycircumflex.min
Encoding: 492 -1 469
Width: 492
VWidth: 0
Flags: W
HStem: 0 21G<210 280> 0 21G<210 280> 703 20G<221.789 271.684> 703 20G<221.789 271.684>
VStem: 210 70<0 133>
LayerCount: 2
Fore
SplineSet
280 190 m 1x88
 280 0 l 1
 210 0 l 1
 220 190 l 1
 20 580 l 1
 100 580 l 1
 244 250 l 1
 390 580 l 1
 472 580 l 1
 280 190 l 1x88
246 678 m 1
 186 628 l 1
 131 628 l 1
 246 723 l 1x28
 368 628 l 1
 313 628 l 1
 246 678 l 1
EndSplineSet
Validated: 1
Substitution2: "'cv01' Character Variants 01 in Latin lookup 0-2" ycircumflex
Substitution2: "'cv01' Character Variants 01 in Latin lookup 0-1" Ycircumflex
EndChar

StartChar: Ydieresis.min
Encoding: 493 -1 470
Width: 492
VWidth: 0
Flags: W
HStem: 0 21G<210 280> 0 21G<210 280> 656 63<163.55 223.261 274.739 334.45>
VStem: 162 63<657.739 717.45> 210 70<0 148.4> 220 60<63.6 212> 273 63<657.739 717.45>
LayerCount: 2
Fore
SplineSet
280 212 m 1xa4
 280 0 l 1
 210 0 l 1xa8
 220 212 l 1
 20 602 l 1
 100 602 l 1
 244 272 l 1
 390 602 l 1
 472 602 l 1
 280 212 l 1xa4
EndSplineSet
Refer: 76 168 N 1 0 0 1 122 -94 2
Validated: 1
Substitution2: "'cv01' Character Variants 01 in Latin lookup 0-2" ydieresis
Substitution2: "'cv01' Character Variants 01 in Latin lookup 0-1" Ydieresis
EndChar

StartChar: dagger
Encoding: 443 8224 471
Width: 480
VWidth: 0
Flags: W
HStem: 510 80<40 99.5 380.5 440> 530 60<150.5 178.8 301.8 329.5>
VStem: 200 80<616 800> 210 70<-60 381.8 616 664> 210 60<184.2 530>
LayerCount: 2
Fore
SplineSet
210 530 m 1x48
 40 510 l 1
 40 590 l 1x88
 106 590 l 1
 210 580 l 1x48
 200 700 l 1
 200 800 l 1
 280 800 l 1
 280 700 l 1x60
 270 580 l 1
 376 590 l 1x48
 440 590 l 1
 440 510 l 1x88
 270 530 l 1x48
 280 36 l 1
 280 -60 l 1
 210 -60 l 1
 210 36 l 1x50
 210 530 l 1x48
EndSplineSet
Validated: 1
EndChar

StartChar: daggerdbl
Encoding: 444 8225 472
Width: 480
VWidth: 0
Flags: W
HStem: 150 80<40 99.5 380.5 440> 150 60<150.5 178.5 301.5 329.5> 510 80<40 99.5 380.5 440> 530 60<150.5 178.8 301.8 329.5>
VStem: 200 80<-60 122.8 616 800> 210 60<210 530>
LayerCount: 2
Fore
SplineSet
210 210 m 1x44
 210 530 l 1x54
 40 510 l 1
 40 590 l 1x24
 106 590 l 1
 210 580 l 1x14
 200 700 l 1
 200 800 l 1
 280 800 l 1
 280 700 l 1x18
 270 580 l 1
 376 590 l 1x14
 440 590 l 1
 440 510 l 1x24
 270 530 l 1
 270 210 l 1x54
 440 230 l 1
 440 150 l 1x84
 375 150 l 1
 270 160 l 1x44
 280 36 l 1
 280 -60 l 1
 200 -60 l 1
 200 36 l 1x48
 210 160 l 1
 105 150 l 1x44
 40 150 l 1
 40 230 l 1x84
 210 210 l 1x44
EndSplineSet
Validated: 1
EndChar

StartChar: perthousand
Encoding: 447 8240 473
Width: 837
VWidth: 0
Flags: W
HStem: -10 57<224.919 357.982 512.919 645.982> 218 60<226.403 359.142 514.403 647.142> 444 57<150.919 283.982> 672 60<152.403 285.142>
VStem: 95 15<554.871 616.411> 169 15<100.871 162.411> 325 14<558.875 617.025> 399 14<104.875 163.025> 457 15<100.871 162.411> 687 14<104.875 163.025>
LayerCount: 2
Fore
SplineSet
777 442 m 1
 797 385 l 1
 60 309 l 1
 40 365 l 1
 777 442 l 1
220 732 m 0
 298 732 339 658 339 586 c 0
 339 567 336 548 330 531 c 0
 311 472 264 444 218 444 c 0
 171 444 124 473 105 531 c 0
 98 549 95 568 95 587 c 0
 95 659 140 732 220 732 c 0
110 585 m 0
 110 532 167 501 218 501 c 0
 232 501 246 503 258 508 c 0
 302 525 325 557 325 588 c 0
 325 619 304 649 260 666 c 0
 248 670 235 672 222 672 c 0
 168 672 110 640 110 585 c 0
582 278 m 0
 660 278 701 204 701 132 c 0
 701 113 698 94 692 77 c 0
 673 18 626 -10 580 -10 c 0
 533 -10 486 19 467 77 c 0
 460 95 457 114 457 133 c 0
 457 205 502 278 582 278 c 0
472 131 m 0
 472 78 529 47 580 47 c 0
 594 47 608 49 620 54 c 0
 664 71 687 103 687 134 c 0
 687 165 666 195 622 212 c 0
 610 216 597 218 584 218 c 0
 530 218 472 186 472 131 c 0
294 278 m 0
 372 278 413 204 413 132 c 0
 413 113 410 94 404 77 c 0
 385 18 338 -10 292 -10 c 0
 245 -10 198 19 179 77 c 0
 172 95 169 114 169 133 c 0
 169 205 214 278 294 278 c 0
184 131 m 0
 184 78 241 47 292 47 c 0
 306 47 320 49 332 54 c 0
 376 71 399 103 399 134 c 0
 399 165 378 195 334 212 c 0
 322 216 309 218 296 218 c 0
 242 218 184 186 184 131 c 0
EndSplineSet
Validated: 1
EndChar

StartChar: guilsinglleft
Encoding: 448 8249 474
Width: 324
VWidth: 0
Flags: W
VStem: 40 244
LayerCount: 2
Fore
SplineSet
81 360 m 1
 284 148 l 1
 269 135 257 128 257 128 c 1
 257 128 71 291 40 314 c 1
 40 402 l 1
 71 426 236 598 250 598 c 1
 258 593 270 584 277 578 c 1
 81 360 l 1
EndSplineSet
Validated: 1
EndChar

StartChar: guilsinglright
Encoding: 449 8250 475
Width: 324
VWidth: 0
Flags: W
VStem: 40 244
LayerCount: 2
Fore
SplineSet
243 360 m 1
 47 578 l 1
 54 584 66 593 74 598 c 1
 88 598 253 426 284 402 c 1
 284 314 l 1
 253 291 67 128 67 128 c 1
 67 128 55 135 40 148 c 1
 243 360 l 1
EndSplineSet
Validated: 1
EndChar

StartChar: lozenge
Encoding: 462 9674 476
Width: 620
VWidth: 0
Flags: W
LayerCount: 2
Fore
SplineSet
580 361 m 1
 310 -41 l 1
 40 361 l 1
 310 799 l 1
 580 361 l 1
494 361 m 1
 310 689 l 1
 120 361 l 1
 310 59 l 1
 494 361 l 1
EndSplineSet
Validated: 1
EndChar

StartChar: TT
Encoding: 494 -1 477
Width: 895
VWidth: 0
Flags: W
HStem: 0 22G<220 300 578 658> 0 22G<220 300 578 658> 677 43<40 124.923 753.077 838> 690 30<132 224 296 438.704 654 753.077>
VStem: 220 80<0 690> 578 80<1 690>
LayerCount: 2
Fore
SplineSet
654 690 m 1x1c
 658 1 l 1
 578 1 l 1
 582 690 l 1
 535 685 488 683 441 683 c 0
 392 683 344 685 296 690 c 1
 300 0 l 1
 220 0 l 1
 224 690 l 1x9c
 40 676 l 1
 40 720 l 1x2c
 282 720 l 1x1c
 838 720 l 1
 838 677 l 1x2c
 654 690 l 1x1c
EndSplineSet
Validated: 1
Ligature2: "'liga' Standard Ligatures in Latin lookup 0-1" t t
Ligature2: "'liga' Standard Ligatures in Latin lookup 0-1" T T
EndChar

StartChar: FF
Encoding: 495 -1 478
Width: 634
VWidth: 0
Flags: W
HStem: 0 21G<40 120 336 416> 0 21G<40 120 336 416> 352 30<120 250 416 546> 688 32<121.692 336 416 594>
VStem: 40 80<0 352 382 684.575> 336 80<0 352 382 685.344>
LayerCount: 2
Fore
SplineSet
40 0 m 1xbc
 40 720 l 1
 139 720 237 720 336 720 c 1
 594 720 l 1
 594 683 l 1
 416 690 l 1
 416 382 l 1
 546 384 l 1
 546 350 l 1
 416 352 l 1
 416 0 l 1
 336 0 l 1
 336 683 l 1
 308 687 273 688 238 688 c 0
 198 688 156 686 120 683 c 1
 120 382 l 1
 250 384 l 1
 250 350 l 1
 120 352 l 1
 120 0 l 1
 40 0 l 1xbc
EndSplineSet
Validated: 1
LCarets2: 1 0
Ligature2: "'liga' Standard Ligatures in Latin lookup 0-1" F F
Ligature2: "'liga' Standard Ligatures in Latin lookup 0-1" f f
EndChar

StartChar: FFI
Encoding: 496 -1 479
Width: 854
VWidth: 0
Flags: W
HStem: 0 34<594 664 744 814> 352 30<120 250 416 546> 688 32<121.692 336 417.923 661.987 779 814> 690 30<416 541.893 744 814>
VStem: 40 80<0 352 382 684.575> 336 80<0 352 382 685.344> 664 80<30 690>
LayerCount: 2
Fore
SplineSet
594 0 m 1xde
 594 34 l 1
 664 30 l 1
 664 690 l 1
 621 685 581 682 544 682 c 0
 499 682 457 686 416 690 c 1xde
 416 382 l 1
 546 384 l 1
 546 350 l 1
 416 352 l 1
 416 0 l 1
 336 0 l 1
 336 683 l 1
 308 687 273 688 238 688 c 0xee
 198 688 156 686 120 683 c 1
 120 382 l 1
 250 384 l 1
 250 350 l 1
 120 352 l 1
 120 0 l 1
 40 0 l 1
 40 720 l 1xde
 336 720 l 1
 594 720 l 1
 814 720 l 1xee
 814 683 l 1
 744 690 l 1
 744 30 l 1
 814 34 l 1
 814 0 l 1
 594 0 l 1xde
EndSplineSet
Validated: 1
LCarets2: 2 0 0
Ligature2: "'liga' Standard Ligatures in Latin lookup 0-1" F F I
Ligature2: "'liga' Standard Ligatures in Latin lookup 0-1" f f i
EndChar

StartChar: FI
Encoding: 497 -1 480
Width: 558
VWidth: 0
Flags: W
HStem: 0 34<298 368 448 518> 352 30<120 250> 682 38<121.923 365.987 456.75 518>
VStem: 40 80<0 352 382 690> 368 80<30 690>
LayerCount: 2
Fore
SplineSet
40 720 m 1
 298 720 l 1
 518 720 l 1
 518 683 l 1
 448 690 l 1
 448 30 l 1
 518 34 l 1
 518 0 l 1
 298 0 l 1
 298 34 l 1
 368 30 l 1
 368 690 l 1
 325 685 285 682 248 682 c 0
 203 682 161 686 120 690 c 1
 120 382 l 1
 250 384 l 1
 250 350 l 1
 120 352 l 1
 120 0 l 1
 40 0 l 1
 40 240 40 480 40 720 c 1
EndSplineSet
Validated: 1
Ligature2: "'liga' Standard Ligatures in Latin lookup 0-1" f i
Ligature2: "'liga' Standard Ligatures in Latin lookup 0-1" F I
EndChar

StartChar: FT
Encoding: 498 -1 481
Width: 768
VWidth: 0
Flags: W
HStem: 0 21G<40 120 468 548> 0 21G<40 120 468 548> 352 30<120 250> 676 44<636 728> 683 37<122.763 468.957>
VStem: 40 80<0 352 382 690> 468 80<0 690>
LayerCount: 2
Fore
SplineSet
120 690 m 1xae
 120 382 l 1
 250 384 l 1
 250 350 l 1
 120 352 l 1
 120 0 l 1
 40 0 l 1
 40 720 l 1xae
 728 720 l 1
 728 676 l 1x36
 544 690 l 1
 548 0 l 1
 468 0 l 1
 472 690 l 1
 407 685 348 683 289 683 c 0
 234 683 179 685 120 690 c 1xae
EndSplineSet
Validated: 1
LCarets2: 1 0
Ligature2: "'dlig' Discretionary Ligatures in Latin lookup 2-1" F T
EndChar

StartChar: euro
Encoding: 452 8364 482
Width: 605
VWidth: 0
Flags: W
HStem: -10 30<354.914 446.49> 249 62<66 131 219 516> 381 62<66 130 214 516> 700 30<347.08 436.021>
VStem: 130 80<311 381 443 530.21> 137 82<170.883 249>
LayerCount: 2
Fore
SplineSet
565 46 m 1xf4
 514 6 452 -10 386 -10 c 0
 385 -10 385 -10 384 -10 c 0
 223 -10 157 103 137 249 c 1xf4
 40 249 l 1
 66 311 l 1
 131 311 l 1
 131 326 130 342 130 358 c 0
 130 366 130 373 130 381 c 1
 40 381 l 1
 66 443 l 1
 134 443 l 1
 149 589 216 730 376 730 c 0
 379 730 383 730 386 730 c 0
 445 729 508 716 555 680 c 1
 530 616 l 1
 474 653 440 700 385 700 c 0
 352 700 317 671 280 620 c 0
 238 566 221 509 214 443 c 1
 538 443 l 1
 516 381 l 1
 210 381 l 1
 210 374 210 367 210 360 c 0xf8
 210 344 211 327 212 311 c 1
 538 311 l 1
 516 249 l 1
 219 249 l 1
 232 171 261 98 323 51 c 0
 343 38 369 21 395 20 c 0
 410 20 427 23 440 30 c 0
 478 49 508 89 545 112 c 1
 565 46 l 1xf4
EndSplineSet
Validated: 1
EndChar

StartChar: Delta
Encoding: 453 8710 483
Width: 640
VWidth: 0
Flags: W
HStem: 150 40<122 518>
LayerCount: 2
Fore
SplineSet
320 710 m 1
 600 150 l 1
 40 150 l 1
 320 710 l 1
518 190 m 1
 320 622 l 1
 122 190 l 1
 518 190 l 1
EndSplineSet
Validated: 1
EndChar

StartChar: NameMe.488
Encoding: 436 8212 484
Width: 636
VWidth: 0
Flags: W
HStem: 330 58<40 596>
LayerCount: 2
Fore
SplineSet
596 330 m 1
 40 330 l 1
 40 388 l 1
 596 388 l 1
 596 330 l 1
EndSplineSet
Validated: 1
EndChar

StartChar: endash
Encoding: 435 8211 485
Width: 482
VWidth: 0
Flags: W
HStem: 331 58<40 442>
LayerCount: 2
Fore
SplineSet
442 331 m 1
 40 331 l 1
 40 389 l 1
 442 389 l 1
 442 331 l 1
EndSplineSet
Validated: 1
EndChar

StartChar: Q.alt
Encoding: 499 -1 486
Width: 553
VWidth: 0
Flags: W
HStem: -10 36<211.407 340.077> 694 36<214.063 335.552>
VStem: 30 79<174.698 541.626> 441 79<176.34 537.859>
LayerCount: 2
Fore
SplineSet
275 26 m 0
 409 26 441 203 441 350 c 0
 441 408 436 461 430 497 c 0
 413 585 379 694 276 694 c 0
 169 694 136 586 120 497 c 0
 114 452 109 398 109 344 c 0
 109 189 145 26 275 26 c 0
275 730 m 1
 468 730 520 544 520 369 c 0
 520 367 520 366 520 364 c 0
 520 305 515 249 505 201 c 0
 493 134 462 80 420 43 c 1
 553 -140 l 1
 490 -190 l 1
 364 8 l 1
 338 -4 309 -10 278 -10 c 0
 277 -10 277 -10 276 -10 c 0
 245 -10 197 1 170 14 c 0
 49 82 32 226 30 362 c 0
 32 555 79 724 275 730 c 1
EndSplineSet
Validated: 1
Substitution2: "'cv01' Character Variants 01 in Latin lookup 0-2" q
Substitution2: "'cv01' Character Variants 01 in Latin lookup 0-1" Q
EndChar

StartChar: quotesinglbase
Encoding: 439 8218 487
Width: 179
VWidth: 0
Flags: W
HStem: -10 97<49.5823 86>
VStem: 86 53<-42.25 -2.51221>
LayerCount: 2
Fore
SplineSet
85 87 m 0
 115 87 139 57 139 26 c 0
 139 -25 111 -65 54 -94 c 1
 44 -76 l 1
 68 -64 86 -41 86 -10 c 1
 62 -7 40 13 40 40 c 0
 40 66 58 87 85 87 c 0
EndSplineSet
Validated: 1
EndChar

StartChar: quotedblbase
Encoding: 442 8222 488
Width: 338
VWidth: 0
Flags: W
HStem: -10 97<49.5823 86 208.582 245>
VStem: 86 53<-42.25 -2.51221> 245 53<-42.25 -2.51221>
LayerCount: 2
Fore
SplineSet
244 87 m 0
 274 87 298 57 298 26 c 0
 298 -25 270 -65 213 -94 c 1
 203 -76 l 1
 227 -64 245 -41 245 -10 c 1
 221 -7 199 13 199 40 c 0
 199 66 217 87 244 87 c 0
85 87 m 0
 115 87 139 57 139 26 c 0
 139 -25 111 -65 54 -94 c 1
 44 -76 l 1
 68 -64 86 -41 86 -10 c 1
 62 -7 40 13 40 40 c 0
 40 66 58 87 85 87 c 0
EndSplineSet
Validated: 1
EndChar

StartChar: quotedblleft
Encoding: 440 8220 489
Width: 338
VWidth: 0
Flags: W
HStem: 619 97<93 129.418 252 288.418>
VStem: 40 53<708.512 748.25> 199 53<708.512 748.25>
LayerCount: 2
Fore
SplineSet
94 619 m 0
 64 619 40 649 40 680 c 0
 40 731 68 771 125 800 c 1
 135 782 l 1
 111 770 93 747 93 716 c 1
 117 713 139 693 139 666 c 0
 139 640 121 619 94 619 c 0
253 619 m 0
 223 619 199 649 199 680 c 0
 199 731 227 771 284 800 c 1
 294 782 l 1
 270 770 252 747 252 716 c 1
 276 713 298 693 298 666 c 0
 298 640 280 619 253 619 c 0
EndSplineSet
Validated: 1
EndChar

StartChar: NameMe.494
Encoding: 441 8221 490
Width: 338
VWidth: 0
Flags: W
HStem: 703 97<49.5823 86 208.582 245>
VStem: 86 53<670.75 710.488> 245 53<670.75 710.488>
LayerCount: 2
Fore
SplineSet
244 800 m 0
 274 800 298 770 298 739 c 0
 298 688 270 648 213 619 c 1
 203 637 l 1
 227 649 245 672 245 703 c 1
 221 706 199 726 199 753 c 0
 199 779 217 800 244 800 c 0
85 800 m 0
 115 800 139 770 139 739 c 0
 139 688 111 648 54 619 c 1
 44 637 l 1
 68 649 86 672 86 703 c 1
 62 706 40 726 40 753 c 0
 40 779 58 800 85 800 c 0
EndSplineSet
Validated: 1
EndChar

StartChar: KY
Encoding: 500 -1 491
Width: 822
VWidth: 0
Flags: W
HStem: 0 21G<40 120 321.62 430 540 610> 0 21G<40 120 321.62 430 540 610> 700 20G<40 120 327.568 430 711.152 802> 700 20G<40 120 327.568 430 711.152 802>
VStem: 40 80<0 168 461 720> 40 70<72 240 350 609> 540 70<0 231> 550 60<99 330>
LayerCount: 2
Fore
SplineSet
610 330 m 1xa1
 610 0 l 1
 540 0 l 1xa2
 550 330 l 1
 400 623 l 1
 444 688 l 1
 574 390 l 1
 720 720 l 1
 802 720 l 1
 610 330 l 1xa1
430 0 m 1
 330 0 l 1
 180 358 l 1
 110 240 l 1xa4
 120 0 l 1
 40 0 l 1
 40 720 l 1
 120 720 l 1xa8
 110 350 l 1xa4
 340 720 l 1
 430 720 l 1
 208 390 l 1
 430 0 l 1
EndSplineSet
Validated: 1
Ligature2: "'dlig' Discretionary Ligatures in Latin lookup 2-1" K Y
EndChar

StartChar: CT
Encoding: 501 -1 492
Width: 890
VWidth: 0
Flags: W
HStem: -10 30<256.189 346.953> 0 21G<590 670> 0 21G<590 670> 677 43<386.02 592.87 765.077 850> 700 30<242.716 403.499>
VStem: 30 80<193.959 529.098> 590 80<0 690>
LayerCount: 2
Fore
SplineSet
467 46 m 1x8e
 416 6 352 -10 286 -10 c 2
 286 -10 285 -10 284 -10 c 0
 79 -10 30 170 30 374 c 0
 30 540 91 730 277 730 c 0x8e
 341 730 410 720 594 720 c 2
 850 720 l 1
 850 676 l 1
 666 690 l 1
 670 0 l 1
 590 0 l 1
 594 690 l 1
 570 681 539 677 507 677 c 0x56
 423 677 325 700 285 700 c 0
 252 700 216 671 180 620 c 0
 122 545 110 463 110 360 c 0
 112 246 132 119 223 51 c 0
 243 38 269 21 295 20 c 0
 297 20 298 20 300 20 c 0
 313 20 327 24 340 30 c 0
 378 49 408 89 445 112 c 1
 467 46 l 1x8e
EndSplineSet
Validated: 1
Ligature2: "'liga' Standard Ligatures in Latin lookup 0-1" C T
EndChar

StartChar: ST
Encoding: 502 -1 493
Width: 840
VWidth: 0
Flags: W
HStem: -10 37<124.923 256.152> 0 21G<540 620> 0 21G<540 620> 676 44<708 800> 683 37<345.593 542.778> 690 30<456.499 544 616 708> 696 34<177.736 438.589>
VStem: 20 80<489.57 631.582> 332 78<109.735 269.513> 540 80<0 690>
LayerCount: 2
Fore
SplineSet
616 690 m 1x05c0
 620 0 l 1
 540 0 l 1
 544 690 l 1x45c0
 518 685 487 683 455 683 c 0x09c0
 368 683 271 696 240 696 c 0
 239 696 239 696 238 696 c 0
 198 696 144 666 124 636 c 0
 107 612 100 576 100 547 c 0
 100 428 310 416 375 316 c 0
 398 282 410 250 410 210 c 0
 410 67 302 -10 186 -10 c 0
 132 -10 78 -1 30 27 c 1
 50 94 l 1
 90 69 132 27 191 27 c 0
 228 27 265 45 290 70 c 0
 321 101 332 157 332 199 c 0
 332 327 168 346 91 408 c 0
 50 441 20 488 20 542 c 0
 20 672 127 730 240 730 c 0x83c0
 288 730 360 720 545 720 c 2x05c0
 800 720 l 1
 800 676 l 1x11c0
 616 690 l 1x05c0
EndSplineSet
Validated: 1
LCarets2: 1 0
Ligature2: "'liga' Standard Ligatures in Latin lookup 0-1" S T
EndChar

StartChar: STT
Encoding: 503 -1 494
Width: 1218
VWidth: 0
Flags: W
HStem: -10 37<144.923 276.152> 0 22G<560 640 918 998> 0 22G<560 640 918 998> 683 37<365.593 562.778 638.25 919.797 1151.71 1178> 690 30<476.499 564 636 778.704 994 1093.08> 696 34<197.736 458.589>
VStem: 40 80<489.57 631.582> 352 78<109.735 269.513> 560 80<0 690> 918 80<1 690>
LayerCount: 2
Fore
SplineSet
994 690 m 1x0bc0
 998 1 l 1
 918 1 l 1
 922 690 l 1x0bc0
 875 685 828 683 781 683 c 0x13c0
 732 683 684 685 636 690 c 1
 640 0 l 1
 560 0 l 1
 564 690 l 1x4bc0
 538 685 507 683 475 683 c 0x13c0
 388 683 291 696 260 696 c 0
 259 696 259 696 258 696 c 0
 218 696 164 666 144 636 c 0
 127 612 120 576 120 547 c 0
 120 428 330 416 395 316 c 0
 418 282 430 250 430 210 c 0
 430 67 322 -10 206 -10 c 0
 152 -10 98 -1 50 27 c 1
 70 94 l 1
 110 69 152 27 211 27 c 0
 248 27 285 45 310 70 c 0
 341 101 352 157 352 199 c 0
 352 327 188 346 111 408 c 0
 70 441 40 488 40 542 c 0
 40 672 147 730 260 730 c 0x87c0
 308 730 380 720 565 720 c 2
 622 720 l 1x0bc0
 1178 720 l 1x13c0
 1178 677 l 1
 994 690 l 1x0bc0
EndSplineSet
Validated: 1
Ligature2: "'dlig' Discretionary Ligatures in Latin lookup 2-1" S T T
EndChar

StartChar: ordfeminine
Encoding: 104 170 495
Width: 532
VWidth: 0
Flags: W
HStem: 366 39<104.669 220.617> 559 31<147.401 267.831> 707 23<124.636 231.621>
VStem: 38 48<422.566 518.713> 269 54<373.221 432 446.611 565 588.19 680.983>
LayerCount: 2
Fore
SplineSet
333 372 m 1
 284 372 l 1
 280 389 271 410 271 432 c 1
 241 388 198 366 142 366 c 0
 84 366 38 405 38 464 c 0
 38 465 38 466 38 467 c 0
 40 578 168 580 269 590 c 1
 269 639 260 681 228 699 c 0
 217 705 204 707 189 707 c 0
 146 707 94 687 71 673 c 1
 56 693 l 1
 103 718 151 730 198 730 c 0
 282 730 323 686 323 598 c 2
 323 457 l 2
 323 427 328 398 333 372 c 1
159 405 m 0
 209 405 247 441 269 471 c 1
 269 565 l 1
 244 563 223 561 206 559 c 0
 163 555 135 546 111 524 c 1
 95 513 86 491 86 470 c 0
 86 451 92 434 105 422 c 0
 120 410 135 405 159 405 c 0
EndSplineSet
Validated: 1
EndChar

StartChar: Eth
Encoding: 141 208 496
Width: 593
VWidth: 0
Flags: W
HStem: 0 28<190 324.515> 328 58<40 110 190 304> 694 26<190 317.458>
VStem: 110 80<30 328 386 690> 473 80<216.373 497.919>
LayerCount: 2
Fore
SplineSet
40 328 m 1
 40 386 l 1
 110 386 l 1
 110 720 l 1
 276 720 l 2
 460 720 553 558 553 360 c 0
 553 246 526 157 474 95 c 0
 423 32 357 0 278 0 c 2
 110 0 l 1
 110 328 l 1
 40 328 l 1
190 30 m 1
 214 30 238 28 260 28 c 0
 286 28 309 31 327 42 c 0
 412 97 473 215 473 355 c 0
 473 359 473 364 473 368 c 0
 469 509 411 627 320 681 c 0
 307 691 288 694 265 694 c 0
 253 694 241 693 228 692 c 0
 205 691 193 690 190 690 c 2
 190 386 l 1
 304 386 l 1
 304 328 l 1
 190 328 l 1
 190 30 l 1
EndSplineSet
Validated: 1
EndChar

StartChar: eth
Encoding: 173 240 497
Width: 553
VWidth: 0
Flags: W
HStem: -10 34<216.035 336.208> 500 30<212.711 338.543> 700 20G<117 186> 700 20G<117 186>
VStem: 35 79<147.75 380.886> 437 81<149.047 380.995>
LayerCount: 2
Fore
SplineSet
280 24 m 0xcc
 383 24 437 154 437 276 c 0
 437 298 435 321 431 342 c 0
 422 405 389 460 343 483 c 0
 322 494 299 500 276 500 c 0
 252 500 228 494 207 483 c 0
 162 458 129 404 121 340 c 0
 117 306 114 285 114 265 c 0
 114 243 118 221 125 184 c 0
 144 108 185 24 280 24 c 0xcc
277 -10 m 0
 126 -10 35 101 35 252 c 0
 35 412 118 530 277 530 c 0
 303 530 327 527 350 521 c 1
 346 526 320 562 277 605 c 1
 144 567 l 1
 126 606 l 1
 241 638 l 1
 206 669 164 699 117 720 c 1
 186 720 l 1xec
 186 720 235 699 295 654 c 1
 432 692 l 1
 449 653 l 1
 335 621 l 1
 398 566 463 487 497 381 c 0
 503 364 508 346 512 326 c 0
 512 323 513 320 513 317 c 0
 516 297 518 275 518 253 c 0
 518 104 424 -10 277 -10 c 0
EndSplineSet
Validated: 1
EndChar

StartChar: kgreenlandic
Encoding: 245 312 498
Width: 470
VWidth: 0
Flags: W
HStem: 0 21G<40 120 321.62 430> 0 21G<40 120 321.62 430> 700 20G<40 120 327.568 430> 700 20G<40 120 327.568 430>
VStem: 40 80<0 168 461 720> 40 70<72 240 350 609>
LayerCount: 2
Fore
SplineSet
430 0 m 1xa4
 330 0 l 1
 180 358 l 1
 110 240 l 1xa4
 120 0 l 1
 40 0 l 1
 40 720 l 1
 120 720 l 1xa8
 110 350 l 1
 340 720 l 1
 430 720 l 1
 208 390 l 1
 430 0 l 1xa4
EndSplineSet
Validated: 1
EndChar

StartChar: Thorn
Encoding: 155 222 499
Width: 451
VWidth: 0
Flags: W
HStem: 0 21G<40 120> 0 21G<40 120> 210 26<120 282.697> 553 27<120 285.878> 700 20G<40 120> 700 20G<40 120>
VStem: 40 80<0 210 236 550 580 720> 355 56<297.486 490.082>
LayerCount: 2
Fore
SplineSet
226 237 m 2x33
 313 237 355 303 355 390 c 0
 355 477 317 553 230 553 c 2
 120 550 l 1
 118 236 l 1
 226 237 l 2x33
40 720 m 1xbb
 120 720 l 1
 120 580 l 1
 232 580 l 2
 290 580 330 565 363 538 c 0
 395 511 411 450 411 393 c 0
 411 340 394 280 363 254 c 0
 332 225 289 210 236 210 c 2
 120 210 l 1
 120 0 l 1
 40 0 l 1
 40 575 l 1
 40 580 l 1
 40 720 l 1xbb
EndSplineSet
Validated: 1
EndChar

StartChar: thorn
Encoding: 187 254 500
Width: 451
VWidth: 0
Flags: W
HStem: 0 21G<40 120> 0 21G<40 120> 350 26<120 282.697> 693 27<120 285.878>
VStem: 40 80<0 350 376 690> 355 56<437.486 630.082>
LayerCount: 2
Fore
SplineSet
226 237 m 2x3c
 313 237 355 303 355 390 c 0
 355 477 317 553 230 553 c 2
 120 550 l 1
 118 236 l 1
 226 237 l 2x3c
40 720 m 1
 120 720 l 1
 120 580 l 1
 232 580 l 2
 290 580 330 565 363 538 c 0
 395 511 411 450 411 393 c 0
 411 340 394 280 363 254 c 0
 332 225 289 210 236 210 c 2
 120 210 l 1
 120 0 l 1
 40 0 l 1xbc
 40 575 l 1
 40 580 l 1
 40 720 l 1
EndSplineSet
Validated: 1
EndChar

StartChar: Eng
Encoding: 263 330 501
Width: 491
VWidth: 0
Flags: W
HStem: -200 40<270 318.054> 0 21G<40 120> 0 21G<40 120> 700 20G<40 132.317 376 450> 700 20G<40 132.317 376 450>
VStem: 40 80<0 189> 40 70<189 630> 381 69<102 720>
LayerCount: 2
Fore
SplineSet
381 102 m 1xd3
 376 720 l 1
 450 720 l 1
 450 387 l 1
 451 0 l 2
 451 -95 393 -200 270 -200 c 1
 270 -160 l 2
 271 -160 271 -160 272 -160 c 0
 315 -160 360 -125 360 -3 c 2
 360 0 l 1
 110 630 l 1xb3
 120 0 l 1
 40 0 l 1xc5
 40 720 l 1
 124 720 l 1
 381 102 l 1xd3
EndSplineSet
Validated: 1
EndChar

StartChar: eng
Encoding: 264 331 502
Width: 491
VWidth: 0
Flags: W
HStem: -10 40<40 92.9222> 700 20G<150 220.038> 700 20G<150 220.038>
VStem: 150 71<89.8782 720>
LayerCount: 2
Fore
SplineSet
381 102 m 1xb0
 376 720 l 1
 450 720 l 1
 450 387 l 1
 451 0 l 2
 451 -95 393 -200 270 -200 c 1
 270 -160 l 2
 271 -160 271 -160 272 -160 c 0
 315 -160 360 -125 360 -3 c 2
 360 0 l 1
 110 630 l 1
 120 0 l 1
 40 0 l 1
 40 720 l 1
 124 720 l 1
 381 102 l 1xb0
EndSplineSet
Validated: 1
EndChar

StartChar: uni01DD
Encoding: 343 477 503
Width: 320
VWidth: 0
Flags: W
HStem: 0 34<40 196> 352 30<100 200> 684 36<44 200>
VStem: 200 80<30 352 382 690>
LayerCount: 2
Fore
SplineSet
40 0 m 1
 40 34 l 1
 196 30 l 1
 200 352 l 1
 100 350 l 1
 100 384 l 1
 200 382 l 1
 200 690 l 1
 44 684 l 1
 44 720 l 1
 280 720 l 1
 280 0 l 1
 40 0 l 1
EndSplineSet
Validated: 1
EndChar
